<?xml version="1.0" encoding="utf-8"?>
<?xml-stylesheet type="text/xsl" href="rss1.xsl"?>
<rss version="2.0" xmlns:atom="http://www.w3.org/2005/Atom" xmlns:content="http://purl.org/rss/1.0/modules/content/" xmlns:dc="http://purl.org/dc/elements/1.1/" xmlns:media="http://search.yahoo.com/mrss/">
<channel>
 <title>Getty</title>
 <link>http://www.gettyimg.com/</link>
 <atom:link href="http://www.gettyimg.com/" rel="self" type="application/rss+xml" />

 
                <item>
                <title><![CDATA[【Cinema Center】SERIES - Wolverine.and.The.X-Men.S01.1080p.DSNP.WEB-DL.DDP5.1.H.264-Samuel]]></title>
                <link><![CDATA[https://sharemania.us/threads/wolverine-and-the-x-men-s01-1080p-dsnp-web-dl-ddp5-1-h-264-samuel.235696/]]></link>
                <description><![CDATA[<article>
<blockquote class="messageText SelectQuoteContainer ugc baseHtml">
<div style="text-align: center"><b><span style="font-size: 26px">Wolverine and The X-Men</span><br>
<span style="font-size: 22px">Season 1</span></b><br>
<img src="https://i.imgur.com/Nu0Jm9a.png" class="bbCodeImage LbImage" alt="[​IMG]" data-url="https://i.imgur.com/Nu0Jm9a.png" style=""><br>
<b><a href="https://i.imgur.com/nchNCQc.png" target="_blank" class="externalLink" rel="nofollow">Alternate Artwork 1</a></b> | <b><a href="https://i.imgur.com/Qsp5wB4.png" target="_blank" class="externalLink" rel="nofollow">Alternate Artwork 2</a></b> | <b><a href="https://i.imgur.com/jsdJsmI.png" target="_blank" class="externalLink" rel="nofollow">Alternate Artwork 3</a></b> | <b><a href="https://i.imgur.com/U8H8Rzy.png" target="_blank" class="externalLink" rel="nofollow">Alternate Artwork 4</a></b> | <b><a href="https://i.imgur.com/EVIrt58.jpg" target="_blank" class="externalLink" rel="nofollow">Alternate Artwork 5</a></b> | <b><a href="https://i.imgur.com/ejHC0Cu.png" target="_blank" class="externalLink" rel="nofollow">Alternate Artwork 6</a></b> | <b><a href="https://i.imgur.com/zecIKNE.jpg" target="_blank" class="externalLink" rel="nofollow">Alternate Artwork 7</a></b> | <b><a href="https://i.imgur.com/ODefC6r.jpg" target="_blank" class="externalLink" rel="nofollow">Header</a></b> | <b><a href="https://i.imgur.com/XFY2iQC.png" target="_blank" class="externalLink" rel="nofollow">Poster 1</a></b> | <b><a href="https://i.imgur.com/eUZ3TSh.png" target="_blank" class="externalLink" rel="nofollow">Poster 2</a></b> | <b><a href="https://i.imgur.com/15Bhr0T.jpg" target="_blank" class="externalLink" rel="nofollow">Poster 3</a></b> | <b><a href="https://i.imgur.com/NK8Zzfv.jpg" target="_blank" class="externalLink" rel="nofollow">Poster 4</a></b> | <b><a href="https://i.imgur.com/lrAiQfR.png" target="_blank" class="externalLink" rel="nofollow">Thumbnail 1</a></b> | <b><a href="https://i.imgur.com/koIwSHc.png" target="_blank" class="externalLink" rel="nofollow">Thumbnail 2</a></b> | <b><a href="https://i.imgur.com/F0jJuAH.png" target="_blank" class="externalLink" rel="nofollow">Thumbnail 3</a></b> | <b><a href="https://i.imgur.com/YzdH8B5.png" target="_blank" class="externalLink" rel="nofollow">Thumbnail 4</a></b> | <b><a href="https://i.imgur.com/BUdr7wD.png" target="_blank" class="externalLink" rel="nofollow">Thumbnail 5</a></b> | <b><a href="https://i.imgur.com/DwQDvW4.png" target="_blank" class="externalLink" rel="nofollow">Thumbnail 6</a></b> | <b><a href="https://i.imgur.com/VIlTDBb.png" target="_blank" class="externalLink" rel="nofollow">Thumbnail 7</a></b> | <b><a href="https://i.imgur.com/2ScRLqD.png" target="_blank" class="externalLink" rel="nofollow">Thumbnail 8</a></b> | <b><a href="https://i.imgur.com/MsaWIUb.png" target="_blank" class="externalLink" rel="nofollow">Thumbnail 9</a></b> | <b><a href="https://i.imgur.com/Ius4dR6.png" target="_blank" class="externalLink" rel="nofollow">Thumbnail 10</a></b> | <b><a href="https://i.imgur.com/OQF4Ntm.png" target="_blank" class="externalLink" rel="nofollow">Thumbnail 11</a></b> | <b><a href="https://i.imgur.com/hY4OgiL.png" target="_blank" class="externalLink" rel="nofollow">Thumbnail 12</a></b> | <b><a href="https://i.imgur.com/WLvYHtO.png" target="_blank" class="externalLink" rel="nofollow">Thumbnail 13</a></b> | <b><a href="https://i.imgur.com/BJzGUwS.png" target="_blank" class="externalLink" rel="nofollow">Thumbnail 14</a></b> | <b><a href="https://i.imgur.com/0AZJH8N.png" target="_blank" class="externalLink" rel="nofollow">Thumbnail 15</a></b> | <b><a href="https://i.imgur.com/UoNlwhV.png" target="_blank" class="externalLink" rel="nofollow">Thumbnail 16</a></b> | <b><a href="https://i.imgur.com/PKv8ibh.png" target="_blank" class="externalLink" rel="nofollow">Thumbnail 17</a></b> | <b><a href="https://i.imgur.com/lBSNzmb.png" target="_blank" class="externalLink" rel="nofollow">Thumbnail 18</a></b> | <b><a href="https://i.imgur.com/XZn7LMp.png" target="_blank" class="externalLink" rel="nofollow">Thumbnail 19</a></b> | <b><a href="https://i.imgur.com/R8JFc5d.png" target="_blank" class="externalLink" rel="nofollow">Thumbnail 20</a></b> | <b><a href="https://i.imgur.com/9j4sEsp.png" target="_blank" class="externalLink" rel="nofollow">Thumbnail 21</a></b> | <b><a href="https://i.imgur.com/C3NpRi0.png" target="_blank" class="externalLink" rel="nofollow">Thumbnail 22</a></b> | <b><a href="https://i.imgur.com/vO1GnR0.png" target="_blank" class="externalLink" rel="nofollow">Thumbnail 23</a></b> | <b><a href="https://i.imgur.com/kGACRrO.png" target="_blank" class="externalLink" rel="nofollow">Thumbnail 24</a></b> | <b><a href="https://i.imgur.com/GA41sxi.png" target="_blank" class="externalLink" rel="nofollow">Thumbnail 25</a></b> | <b><a href="https://i.imgur.com/gRDKDsl.png" target="_blank" class="externalLink" rel="nofollow">Thumbnail 26</a></b> | <b><a href="https://i.imgur.com/dtwW123.jpg" target="_blank" class="externalLink" rel="nofollow">Key Art</a></b><br>
<br>
<img src="https://i.imgur.com/pTLcVzH.png" class="bbCodeImage LbImage" alt="[​IMG]" data-url="https://i.imgur.com/pTLcVzH.png" style=""> <img src="https://i.imgur.com/aNwcs8B.png" class="bbCodeImage LbImage" alt="[​IMG]" data-url="https://i.imgur.com/aNwcs8B.png" style=""><br>
2009 • 1 Season<br>
Science Fiction, Kids, Animation, Super Hero, Action-Adventure<br>
<br>
<div class="bbCodeBlock bbCodeQuote">
<aside>
<blockquote class="quoteContainer"><div class="quote"><b><span style="font-size: 15px"><span style="font-family: 'Arial'">Description</span></span></b><br>
Wolverine and the X-Men must join together again to not only battle the increasingly powerful Mutant Response Division, but also to prevent a catastrophic future that Xavier has warned Wolverine must never come to pass.</div><div class="quoteExpand">Click to expand...</div></blockquote>
</aside>
</div>
<div class="bbCodeBlock bbCodeQuote">
<aside>
<blockquote class="quoteContainer"><div class="quote"><b><span style="font-size: 15px"><span style="font-family: 'Arial'">More Information</span></span></b><br>
<b>Long Description:</b><br>
Wolverine and the X-Men must join together again to not only battle the increasingly powerful Mutant Response Division, but also to prevent a catastrophic future that Xavier has warned Wolverine must never come to pass.<br>
<b>Duration:</b> 22m<br>
<b>Release Date:</b> 2009<br>
<b>Genre:</b> Science Fiction, Kids, Animation, Super Hero, Action-Adventure<br>
<b>Series Rating:</b> <img src="https://i.imgur.com/pTLcVzH.png" class="bbCodeImage LbImage" alt="[​IMG]" data-url="https://i.imgur.com/pTLcVzH.png" style=""><br>
<b>Season 1 Rating:</b> <img src="https://i.imgur.com/pTLcVzH.png" class="bbCodeImage LbImage" alt="[​IMG]" data-url="https://i.imgur.com/pTLcVzH.png" style=""><br>
<b>Starring:</b> Jim Ward, Steve Blum, Nolan North, Fred Tatasciore, Liam O'Brien, Danielle Judovits</div><div class="quoteExpand quoteCut">Click to expand...</div></blockquote>
</aside>
</div>
<div class="bbCodeBlock bbCodeQuote">
<aside>
<blockquote class="quoteContainer"><div class="quote"><b><span style="font-size: 15px">Source</span></b><br>
<img src="https://i.imgur.com/zIQLtMk.png" class="bbCodeImage LbImage" alt="[​IMG]" data-url="https://i.imgur.com/zIQLtMk.png" style=""></div><div class="quoteExpand">Click to expand...</div></blockquote>
</aside>
</div>
<div class="bbCodeBlock bbCodeQuote">
<aside>
<blockquote class="quoteContainer"><div class="quote"><b><span style="font-size: 15px">Release Name</span></b><br>
Wolverine.and.The.X-Men.S01.1080p.DSNP.WEB-DL.DDP5.1.H.264-Samuel</div><div class="quoteExpand">Click to expand...</div></blockquote>
</aside>
</div>
<div class="ToggleTriggerAnchor bbCodeSpoilerContainer">
<button type="button" class="button bbCodeSpoilerButton ToggleTrigger Tooltip JsOnly" data-target="> .SpoilerTarget"><span>Spoiler: <span class="SpoilerTitle">Media Information</span></span></button>
<div class="SpoilerTarget bbCodeSpoilerText"><b><span style="text-decoration: underline">Episode 1: Hindsight: Part 1</span></b><br>
General<br>
Complete name : Wolverine.and.The.X-Men.S01E01.Hindsight.Part.1.1080p.DSNP.WEB-DL.DDP5.1.H.264-Samuel.mkv<br>
Format : Matroska<br>
Format version : Version 4<br>
File size : 1.39 GiB<br>
Duration : 22 min 46 s<br>
Overall bit rate mode : Variable<br>
Overall bit rate : 8 726 kb/s<br>
Frame rate : 23.976 FPS<br>
Encoded date : 2024-01-07 08:06:21 UTC<br>
Writing application : mkvmerge v72.0.0 ('Minuano (Six-eight)') 64-bit<br>
Writing library : libebml v1.4.4 + libmatroska v1.7.1<br>
<br>
Video<br>
ID : 1<br>
Format : AVC<br>
Format/Info : Advanced Video Codec<br>
Format profile : High@L4<br>
Format settings : CABAC / 4 Ref Frames<br>
Format settings, CABAC : Yes<br>
Format settings, Reference frames : 4 frames<br>
Codec ID : V_MPEG4/ISO/AVC<br>
Duration : 22 min 46 s<br>
Bit rate mode : Variable<br>
Bit rate : 8 468 kb/s<br>
Maximum bit rate : 12.7 Mb/s<br>
Width : 1 920 pixels<br>
Height : 1 080 pixels<br>
Display aspect ratio : 16:9<br>
Frame rate mode : Constant<br>
Frame rate : 23.976 (24000/1001) FPS<br>
Color space : YUV<br>
Chroma subsampling : 4:2:0<br>
Bit depth : 8 bits<br>
Scan type : Progressive<br>
Bits/(Pixel*Frame) : 0.170<br>
Time code of first frame : 00:00:00;00<br>
Stream size : 1.35 GiB (97%)<br>
Default : Yes<br>
Forced : No<br>
Color range : Limited<br>
Color primaries : BT.709<br>
Transfer characteristics : BT.709<br>
Matrix coefficients : BT.709<br>
<br>
Audio<br>
ID : 2<br>
Format : E-AC-3<br>
Format/Info : Enhanced AC-3<br>
Commercial name : Dolby Digital Plus<br>
Codec ID : A_EAC3<br>
Duration : 22 min 46 s<br>
Bit rate mode : Constant<br>
Bit rate : 256 kb/s<br>
Channel(s) : 6 channels<br>
Channel layout : L R C LFE Ls Rs<br>
Sampling rate : 48.0 kHz<br>
Frame rate : 31.250 FPS (1536 SPF)<br>
Compression mode : Lossy<br>
Stream size : 41.7 MiB (3%)<br>
Language : English<br>
Service kind : Complete Main<br>
Default : Yes<br>
Forced : No<br>
<br>
Text #1<br>
ID : 3<br>
Format : UTF-8<br>
Codec ID : S_TEXT/UTF8<br>
Codec ID/Info : UTF-8 Plain Text<br>
Duration : 22 min 14 s<br>
Bit rate : 43 b/s<br>
Frame rate : 0.209 FPS<br>
Count of elements : 279<br>
Stream size : 7.16 KiB (0%)<br>
Title : SDH<br>
Language : English<br>
Default : No<br>
Forced : No<br>
<br>
Text #2<br>
ID : 4<br>
Format : UTF-8<br>
Codec ID : S_TEXT/UTF8<br>
Codec ID/Info : UTF-8 Plain Text<br>
Duration : 22 min 5 s<br>
Bit rate : 37 b/s<br>
Frame rate : 0.161 FPS<br>
Count of elements : 214<br>
Stream size : 6.10 KiB (0%)<br>
Title : European<br>
Language : Spanish<br>
Default : No<br>
Forced : No<br>
<br>
Text #3<br>
ID : 5<br>
Format : UTF-8<br>
Codec ID : S_TEXT/UTF8<br>
Codec ID/Info : UTF-8 Plain Text<br>
Duration : 22 min 5 s<br>
Bit rate : 37 b/s<br>
Frame rate : 0.155 FPS<br>
Count of elements : 205<br>
Stream size : 6.01 KiB (0%)<br>
Title : European<br>
Language : Portuguese<br>
Default : No<br>
Forced : No<br>
<br>
Menu<br>
00:00:00.083 : en:Intro<br>
00:00:45.128 : en:Scene 1<br>
00:09:38.704 : en:Scene 2<br>
00:16:17.019 : en:Scene 3<br>
00:22:16.336 : en:Credits<br>
<br>
<b><span style="text-decoration: underline">Episode 2: Hindsight: Part 2</span></b><br>
General<br>
Complete name : Wolverine.and.The.X-Men.S01E02.Hindsight.Part.2.1080p.DSNP.WEB-DL.DDP5.1.H.264-Samuel.mkv<br>
Format : Matroska<br>
Format version : Version 4<br>
File size : 1.39 GiB<br>
Duration : 22 min 46 s<br>
Overall bit rate mode : Variable<br>
Overall bit rate : 8 746 kb/s<br>
Frame rate : 23.976 FPS<br>
Encoded date : 2024-01-07 08:08:55 UTC<br>
Writing application : mkvmerge v72.0.0 ('Minuano (Six-eight)') 64-bit<br>
Writing library : libebml v1.4.4 + libmatroska v1.7.1<br>
<br>
Video<br>
ID : 1<br>
Format : AVC<br>
Format/Info : Advanced Video Codec<br>
Format profile : High@L4<br>
Format settings : CABAC / 4 Ref Frames<br>
Format settings, CABAC : Yes<br>
Format settings, Reference frames : 4 frames<br>
Codec ID : V_MPEG4/ISO/AVC<br>
Duration : 22 min 46 s<br>
Bit rate mode : Variable<br>
Bit rate : 8 488 kb/s<br>
Maximum bit rate : 12.7 Mb/s<br>
Width : 1 920 pixels<br>
Height : 1 080 pixels<br>
Display aspect ratio : 16:9<br>
Frame rate mode : Constant<br>
Frame rate : 23.976 (24000/1001) FPS<br>
Color space : YUV<br>
Chroma subsampling : 4:2:0<br>
Bit depth : 8 bits<br>
Scan type : Progressive<br>
Bits/(Pixel*Frame) : 0.171<br>
Time code of first frame : 00:00:00;00<br>
Stream size : 1.35 GiB (97%)<br>
Default : Yes<br>
Forced : No<br>
Color range : Limited<br>
Color primaries : BT.709<br>
Transfer characteristics : BT.709<br>
Matrix coefficients : BT.709<br>
<br>
Audio<br>
ID : 2<br>
Format : E-AC-3<br>
Format/Info : Enhanced AC-3<br>
Commercial name : Dolby Digital Plus<br>
Codec ID : A_EAC3<br>
Duration : 22 min 46 s<br>
Bit rate mode : Constant<br>
Bit rate : 256 kb/s<br>
Channel(s) : 6 channels<br>
Channel layout : L R C LFE Ls Rs<br>
Sampling rate : 48.0 kHz<br>
Frame rate : 31.250 FPS (1536 SPF)<br>
Compression mode : Lossy<br>
Stream size : 41.7 MiB (3%)<br>
Language : English<br>
Service kind : Complete Main<br>
Default : Yes<br>
Forced : No<br>
<br>
Text #1<br>
ID : 3<br>
Format : UTF-8<br>
Codec ID : S_TEXT/UTF8<br>
Codec ID/Info : UTF-8 Plain Text<br>
Duration : 22 min 18 s<br>
Bit rate : 55 b/s<br>
Frame rate : 0.220 FPS<br>
Count of elements : 295<br>
Stream size : 9.12 KiB (0%)<br>
Title : SDH<br>
Language : English<br>
Default : No<br>
Forced : No<br>
<br>
Text #2<br>
ID : 4<br>
Format : UTF-8<br>
Codec ID : S_TEXT/UTF8<br>
Codec ID/Info : UTF-8 Plain Text<br>
Duration : 22 min 17 s<br>
Bit rate : 50 b/s<br>
Frame rate : 0.191 FPS<br>
Count of elements : 256<br>
Stream size : 8.19 KiB (0%)<br>
Title : European<br>
Language : Spanish<br>
Default : No<br>
Forced : No<br>
<br>
Text #3<br>
ID : 5<br>
Format : UTF-8<br>
Codec ID : S_TEXT/UTF8<br>
Codec ID/Info : UTF-8 Plain Text<br>
Duration : 22 min 17 s<br>
Bit rate : 50 b/s<br>
Frame rate : 0.181 FPS<br>
Count of elements : 242<br>
Stream size : 8.22 KiB (0%)<br>
Title : European<br>
Language : Portuguese<br>
Default : No<br>
Forced : No<br>
<br>
Menu<br>
00:00:00.041 : en:Recap<br>
00:00:39.581 : en:Scene 1<br>
00:02:27.230 : en:Intro<br>
00:03:12.275 : en:Scene 2<br>
00:09:00.541 : en:Scene 3<br>
00:15:23.048 : en:Scene 4<br>
00:22:17.337 : en:Credits<br>
<br>
<b><span style="text-decoration: underline">Episode 3: Hindsight: Part 3</span></b><br>
General<br>
Complete name : Wolverine.and.The.X-Men.S01E03.Hindsight.Part.3.1080p.DSNP.WEB-DL.DDP5.1.H.264-Samuel.mkv<br>
Format : Matroska<br>
Format version : Version 4<br>
File size : 1.39 GiB<br>
Duration : 22 min 45 s<br>
Overall bit rate mode : Variable<br>
Overall bit rate : 8 738 kb/s<br>
Frame rate : 23.976 FPS<br>
Encoded date : 2024-01-07 08:12:37 UTC<br>
Writing application : mkvmerge v72.0.0 ('Minuano (Six-eight)') 64-bit<br>
Writing library : libebml v1.4.4 + libmatroska v1.7.1<br>
<br>
Video<br>
ID : 1<br>
Format : AVC<br>
Format/Info : Advanced Video Codec<br>
Format profile : High@L4<br>
Format settings : CABAC / 4 Ref Frames<br>
Format settings, CABAC : Yes<br>
Format settings, Reference frames : 4 frames<br>
Codec ID : V_MPEG4/ISO/AVC<br>
Duration : 22 min 45 s<br>
Bit rate mode : Variable<br>
Bit rate : 8 480 kb/s<br>
Maximum bit rate : 12.7 Mb/s<br>
Width : 1 920 pixels<br>
Height : 1 080 pixels<br>
Display aspect ratio : 16:9<br>
Frame rate mode : Constant<br>
Frame rate : 23.976 (24000/1001) FPS<br>
Color space : YUV<br>
Chroma subsampling : 4:2:0<br>
Bit depth : 8 bits<br>
Scan type : Progressive<br>
Bits/(Pixel*Frame) : 0.171<br>
Time code of first frame : 00:00:00;00<br>
Stream size : 1.35 GiB (97%)<br>
Default : Yes<br>
Forced : No<br>
Color range : Limited<br>
Color primaries : BT.709<br>
Transfer characteristics : BT.709<br>
Matrix coefficients : BT.709<br>
<br>
Audio<br>
ID : 2<br>
Format : E-AC-3<br>
Format/Info : Enhanced AC-3<br>
Commercial name : Dolby Digital Plus<br>
Codec ID : A_EAC3<br>
Duration : 22 min 45 s<br>
Bit rate mode : Constant<br>
Bit rate : 256 kb/s<br>
Channel(s) : 6 channels<br>
Channel layout : L R C LFE Ls Rs<br>
Sampling rate : 48.0 kHz<br>
Frame rate : 31.250 FPS (1536 SPF)<br>
Compression mode : Lossy<br>
Stream size : 41.7 MiB (3%)<br>
Language : English<br>
Service kind : Complete Main<br>
Default : Yes<br>
Forced : No<br>
<br>
Text #1<br>
ID : 3<br>
Format : UTF-8<br>
Codec ID : S_TEXT/UTF8<br>
Codec ID/Info : UTF-8 Plain Text<br>
Duration : 22 min 18 s<br>
Bit rate : 59 b/s<br>
Frame rate : 0.240 FPS<br>
Count of elements : 321<br>
Stream size : 9.76 KiB (0%)<br>
Title : SDH<br>
Language : English<br>
Default : No<br>
Forced : No<br>
<br>
Text #2<br>
ID : 4<br>
Format : UTF-8<br>
Codec ID : S_TEXT/UTF8<br>
Codec ID/Info : UTF-8 Plain Text<br>
Duration : 22 min 17 s<br>
Bit rate : 53 b/s<br>
Frame rate : 0.200 FPS<br>
Count of elements : 268<br>
Stream size : 8.76 KiB (0%)<br>
Title : European<br>
Language : Spanish<br>
Default : No<br>
Forced : No<br>
<br>
Text #3<br>
ID : 5<br>
Format : UTF-8<br>
Codec ID : S_TEXT/UTF8<br>
Codec ID/Info : UTF-8 Plain Text<br>
Duration : 22 min 17 s<br>
Bit rate : 54 b/s<br>
Frame rate : 0.187 FPS<br>
Count of elements : 250<br>
Stream size : 8.83 KiB (0%)<br>
Title : European<br>
Language : Portuguese<br>
Default : No<br>
Forced : No<br>
<br>
Menu<br>
00:00:00.083 : en:Recap<br>
00:01:17.660 : en:Scene 1<br>
00:02:54.841 : en:Intro<br>
00:03:39.844 : en:Scene 2<br>
00:08:16.121 : en:Scene 3<br>
00:14:44.760 : en:Scene 4<br>
00:22:16.336 : en:Credits<br>
<br>
<b><span style="text-decoration: underline">Episode 4: Overflow</span></b><br>
General<br>
Complete name : Wolverine.and.The.X-Men.S01E04.Overflow.1080p.DSNP.WEB-DL.DDP5.1.H.264-Samuel.mkv<br>
Format : Matroska<br>
Format version : Version 4<br>
File size : 1.39 GiB<br>
Duration : 22 min 46 s<br>
Overall bit rate mode : Variable<br>
Overall bit rate : 8 736 kb/s<br>
Frame rate : 23.976 FPS<br>
Encoded date : 2024-01-07 08:15:06 UTC<br>
Writing application : mkvmerge v72.0.0 ('Minuano (Six-eight)') 64-bit<br>
Writing library : libebml v1.4.4 + libmatroska v1.7.1<br>
<br>
Video<br>
ID : 1<br>
Format : AVC<br>
Format/Info : Advanced Video Codec<br>
Format profile : High@L4<br>
Format settings : CABAC / 4 Ref Frames<br>
Format settings, CABAC : Yes<br>
Format settings, Reference frames : 4 frames<br>
Codec ID : V_MPEG4/ISO/AVC<br>
Duration : 22 min 46 s<br>
Bit rate mode : Variable<br>
Bit rate : 8 478 kb/s<br>
Maximum bit rate : 12.7 Mb/s<br>
Width : 1 920 pixels<br>
Height : 1 080 pixels<br>
Display aspect ratio : 16:9<br>
Frame rate mode : Constant<br>
Frame rate : 23.976 (24000/1001) FPS<br>
Color space : YUV<br>
Chroma subsampling : 4:2:0<br>
Bit depth : 8 bits<br>
Scan type : Progressive<br>
Bits/(Pixel*Frame) : 0.171<br>
Time code of first frame : 00:00:00;00<br>
Stream size : 1.35 GiB (97%)<br>
Default : Yes<br>
Forced : No<br>
Color range : Limited<br>
Color primaries : BT.709<br>
Transfer characteristics : BT.709<br>
Matrix coefficients : BT.709<br>
<br>
Audio<br>
ID : 2<br>
Format : E-AC-3<br>
Format/Info : Enhanced AC-3<br>
Commercial name : Dolby Digital Plus<br>
Codec ID : A_EAC3<br>
Duration : 22 min 46 s<br>
Bit rate mode : Constant<br>
Bit rate : 256 kb/s<br>
Channel(s) : 6 channels<br>
Channel layout : L R C LFE Ls Rs<br>
Sampling rate : 48.0 kHz<br>
Frame rate : 31.250 FPS (1536 SPF)<br>
Compression mode : Lossy<br>
Stream size : 41.7 MiB (3%)<br>
Language : English<br>
Service kind : Complete Main<br>
Default : Yes<br>
Forced : No<br>
<br>
Text #1<br>
ID : 3<br>
Format : UTF-8<br>
Codec ID : S_TEXT/UTF8<br>
Codec ID/Info : UTF-8 Plain Text<br>
Duration : 22 min 17 s<br>
Bit rate : 38 b/s<br>
Frame rate : 0.165 FPS<br>
Count of elements : 221<br>
Stream size : 6.28 KiB (0%)<br>
Title : SDH<br>
Language : English<br>
Default : No<br>
Forced : No<br>
<br>
Text #2<br>
ID : 4<br>
Format : UTF-8<br>
Codec ID : S_TEXT/UTF8<br>
Codec ID/Info : UTF-8 Plain Text<br>
Duration : 22 min 16 s<br>
Bit rate : 33 b/s<br>
Frame rate : 0.132 FPS<br>
Count of elements : 177<br>
Stream size : 5.49 KiB (0%)<br>
Title : European<br>
Language : Spanish<br>
Default : No<br>
Forced : No<br>
<br>
Text #3<br>
ID : 5<br>
Format : UTF-8<br>
Codec ID : S_TEXT/UTF8<br>
Codec ID/Info : UTF-8 Plain Text<br>
Duration : 22 min 16 s<br>
Bit rate : 34 b/s<br>
Frame rate : 0.132 FPS<br>
Count of elements : 177<br>
Stream size : 5.59 KiB (0%)<br>
Title : European<br>
Language : Portuguese<br>
Default : No<br>
Forced : No<br>
<br>
Menu<br>
00:00:00.208 : en:Recap<br>
00:00:56.431 : en:Scene 1<br>
00:01:51.611 : en:Intro<br>
00:02:37.157 : en:Scene 2<br>
00:10:17.951 : en:Scene 3<br>
00:14:38.128 : en:Scene 4<br>
00:22:16.336 : en:Credits<br>
<br>
<b><span style="text-decoration: underline">Episode 5: Thieves' Gambit</span></b><br>
General<br>
Complete name : Wolverine.and.The.X-Men.S01E05.Thieves.Gambit.1080p.DSNP.WEB-DL.DDP5.1.H.264-Samuel.mkv<br>
Format : Matroska<br>
Format version : Version 4<br>
File size : 1.39 GiB<br>
Duration : 22 min 46 s<br>
Overall bit rate mode : Variable<br>
Overall bit rate : 8 749 kb/s<br>
Frame rate : 23.976 FPS<br>
Encoded date : 2024-01-07 08:17:47 UTC<br>
Writing application : mkvmerge v72.0.0 ('Minuano (Six-eight)') 64-bit<br>
Writing library : libebml v1.4.4 + libmatroska v1.7.1<br>
<br>
Video<br>
ID : 1<br>
Format : AVC<br>
Format/Info : Advanced Video Codec<br>
Format profile : High@L4<br>
Format settings : CABAC / 4 Ref Frames<br>
Format settings, CABAC : Yes<br>
Format settings, Reference frames : 4 frames<br>
Codec ID : V_MPEG4/ISO/AVC<br>
Duration : 22 min 46 s<br>
Bit rate mode : Variable<br>
Bit rate : 8 491 kb/s<br>
Maximum bit rate : 12.7 Mb/s<br>
Width : 1 920 pixels<br>
Height : 1 080 pixels<br>
Display aspect ratio : 16:9<br>
Frame rate mode : Constant<br>
Frame rate : 23.976 (24000/1001) FPS<br>
Color space : YUV<br>
Chroma subsampling : 4:2:0<br>
Bit depth : 8 bits<br>
Scan type : Progressive<br>
Bits/(Pixel*Frame) : 0.171<br>
Time code of first frame : 00:00:00;00<br>
Stream size : 1.35 GiB (97%)<br>
Default : Yes<br>
Forced : No<br>
Color range : Limited<br>
Color primaries : BT.709<br>
Transfer characteristics : BT.709<br>
Matrix coefficients : BT.709<br>
<br>
Audio<br>
ID : 2<br>
Format : E-AC-3<br>
Format/Info : Enhanced AC-3<br>
Commercial name : Dolby Digital Plus<br>
Codec ID : A_EAC3<br>
Duration : 22 min 46 s<br>
Bit rate mode : Constant<br>
Bit rate : 256 kb/s<br>
Channel(s) : 6 channels<br>
Channel layout : L R C LFE Ls Rs<br>
Sampling rate : 48.0 kHz<br>
Frame rate : 31.250 FPS (1536 SPF)<br>
Compression mode : Lossy<br>
Stream size : 41.7 MiB (3%)<br>
Language : English<br>
Service kind : Complete Main<br>
Default : Yes<br>
Forced : No<br>
<br>
Text #1<br>
ID : 3<br>
Format : UTF-8<br>
Codec ID : S_TEXT/UTF8<br>
Codec ID/Info : UTF-8 Plain Text<br>
Duration : 22 min 13 s<br>
Bit rate : 36 b/s<br>
Frame rate : 0.151 FPS<br>
Count of elements : 202<br>
Stream size : 6.02 KiB (0%)<br>
Title : SDH<br>
Language : English<br>
Default : No<br>
Forced : No<br>
<br>
Text #2<br>
ID : 4<br>
Format : UTF-8<br>
Codec ID : S_TEXT/UTF8<br>
Codec ID/Info : UTF-8 Plain Text<br>
Duration : 22 min 11 s<br>
Bit rate : 32 b/s<br>
Frame rate : 0.128 FPS<br>
Count of elements : 170<br>
Stream size : 5.31 KiB (0%)<br>
Title : European<br>
Language : Spanish<br>
Default : No<br>
Forced : No<br>
<br>
Text #3<br>
ID : 5<br>
Format : UTF-8<br>
Codec ID : S_TEXT/UTF8<br>
Codec ID/Info : UTF-8 Plain Text<br>
Duration : 22 min 11 s<br>
Bit rate : 32 b/s<br>
Frame rate : 0.126 FPS<br>
Count of elements : 168<br>
Stream size : 5.35 KiB (0%)<br>
Title : European<br>
Language : Portuguese<br>
Default : No<br>
Forced : No<br>
<br>
Menu<br>
00:00:00.083 : en:Recap<br>
00:01:30.632 : en:Scene 1<br>
00:04:17.840 : en:Intro<br>
00:05:02.844 : en:Scene 2<br>
00:05:03.428 : en:Scene 3<br>
00:09:27.776 : en:Scene 4<br>
00:13:47.452 : en:Scene 5<br>
00:22:11.331 : en:Credits<br>
<br>
<b><span style="text-decoration: underline">Episode 6: X-Calibre</span></b><br>
General<br>
Complete name : Wolverine.and.The.X-Men.S01E06.X-Calibre.1080p.DSNP.WEB-DL.DDP5.1.H.264-Samuel.mkv<br>
Format : Matroska<br>
Format version : Version 4<br>
File size : 1.39 GiB<br>
Duration : 22 min 46 s<br>
Overall bit rate mode : Variable<br>
Overall bit rate : 8 750 kb/s<br>
Frame rate : 23.976 FPS<br>
Encoded date : 2024-01-07 08:21:47 UTC<br>
Writing application : mkvmerge v72.0.0 ('Minuano (Six-eight)') 64-bit<br>
Writing library : libebml v1.4.4 + libmatroska v1.7.1<br>
<br>
Video<br>
ID : 1<br>
Format : AVC<br>
Format/Info : Advanced Video Codec<br>
Format profile : High@L4<br>
Format settings : CABAC / 4 Ref Frames<br>
Format settings, CABAC : Yes<br>
Format settings, Reference frames : 4 frames<br>
Codec ID : V_MPEG4/ISO/AVC<br>
Duration : 22 min 46 s<br>
Bit rate mode : Variable<br>
Bit rate : 8 492 kb/s<br>
Maximum bit rate : 12.7 Mb/s<br>
Width : 1 920 pixels<br>
Height : 1 080 pixels<br>
Display aspect ratio : 16:9<br>
Frame rate mode : Constant<br>
Frame rate : 23.976 (24000/1001) FPS<br>
Color space : YUV<br>
Chroma subsampling : 4:2:0<br>
Bit depth : 8 bits<br>
Scan type : Progressive<br>
Bits/(Pixel*Frame) : 0.171<br>
Time code of first frame : 00:00:00;00<br>
Stream size : 1.35 GiB (97%)<br>
Default : Yes<br>
Forced : No<br>
Color range : Limited<br>
Color primaries : BT.709<br>
Transfer characteristics : BT.709<br>
Matrix coefficients : BT.709<br>
<br>
Audio<br>
ID : 2<br>
Format : E-AC-3<br>
Format/Info : Enhanced AC-3<br>
Commercial name : Dolby Digital Plus<br>
Codec ID : A_EAC3<br>
Duration : 22 min 46 s<br>
Bit rate mode : Constant<br>
Bit rate : 256 kb/s<br>
Channel(s) : 6 channels<br>
Channel layout : L R C LFE Ls Rs<br>
Sampling rate : 48.0 kHz<br>
Frame rate : 31.250 FPS (1536 SPF)<br>
Compression mode : Lossy<br>
Stream size : 41.7 MiB (3%)<br>
Language : English<br>
Service kind : Complete Main<br>
Default : Yes<br>
Forced : No<br>
<br>
Text #1<br>
ID : 3<br>
Format : UTF-8<br>
Codec ID : S_TEXT/UTF8<br>
Codec ID/Info : UTF-8 Plain Text<br>
Duration : 22 min 16 s<br>
Bit rate : 46 b/s<br>
Frame rate : 0.213 FPS<br>
Count of elements : 285<br>
Stream size : 7.52 KiB (0%)<br>
Title : SDH<br>
Language : English<br>
Default : No<br>
Forced : No<br>
<br>
Text #2<br>
ID : 4<br>
Format : UTF-8<br>
Codec ID : S_TEXT/UTF8<br>
Codec ID/Info : UTF-8 Plain Text<br>
Duration : 22 min 15 s<br>
Bit rate : 39 b/s<br>
Frame rate : 0.153 FPS<br>
Count of elements : 204<br>
Stream size : 6.44 KiB (0%)<br>
Title : European<br>
Language : Spanish<br>
Default : No<br>
Forced : No<br>
<br>
Text #3<br>
ID : 5<br>
Format : UTF-8<br>
Codec ID : S_TEXT/UTF8<br>
Codec ID/Info : UTF-8 Plain Text<br>
Duration : 22 min 15 s<br>
Bit rate : 40 b/s<br>
Frame rate : 0.154 FPS<br>
Count of elements : 205<br>
Stream size : 6.54 KiB (0%)<br>
Title : European<br>
Language : Portuguese<br>
Default : No<br>
Forced : No<br>
<br>
Menu<br>
00:00:00.291 : en:Recap<br>
00:01:12.030 : en:Scene 1<br>
00:02:34.154 : en:Intro<br>
00:03:19.199 : en:Scene 2<br>
00:10:43.352 : en:Scene 3<br>
00:17:00.854 : en:Scene 4<br>
00:22:14.334 : en:Credits<br>
<br>
<b><span style="text-decoration: underline">Episode 7: Wolverine vs. Hulk</span></b><br>
General<br>
Complete name : Wolverine.and.The.X-Men.S01E07.Wolverine.vs..Hulk.1080p.DSNP.WEB-DL.DDP5.1.H.264-Samuel.mkv<br>
Format : Matroska<br>
Format version : Version 4<br>
File size : 1.39 GiB<br>
Duration : 22 min 46 s<br>
Overall bit rate mode : Variable<br>
Overall bit rate : 8 722 kb/s<br>
Frame rate : 23.976 FPS<br>
Encoded date : 2024-01-07 08:25:24 UTC<br>
Writing application : mkvmerge v72.0.0 ('Minuano (Six-eight)') 64-bit<br>
Writing library : libebml v1.4.4 + libmatroska v1.7.1<br>
<br>
Video<br>
ID : 1<br>
Format : AVC<br>
Format/Info : Advanced Video Codec<br>
Format profile : High@L4<br>
Format settings : CABAC / 4 Ref Frames<br>
Format settings, CABAC : Yes<br>
Format settings, Reference frames : 4 frames<br>
Codec ID : V_MPEG4/ISO/AVC<br>
Duration : 22 min 46 s<br>
Bit rate mode : Variable<br>
Bit rate : 8 464 kb/s<br>
Maximum bit rate : 12.7 Mb/s<br>
Width : 1 920 pixels<br>
Height : 1 080 pixels<br>
Display aspect ratio : 16:9<br>
Frame rate mode : Constant<br>
Frame rate : 23.976 (24000/1001) FPS<br>
Color space : YUV<br>
Chroma subsampling : 4:2:0<br>
Bit depth : 8 bits<br>
Scan type : Progressive<br>
Bits/(Pixel*Frame) : 0.170<br>
Time code of first frame : 00:00:00;00<br>
Stream size : 1.35 GiB (97%)<br>
Default : Yes<br>
Forced : No<br>
Color range : Limited<br>
Color primaries : BT.709<br>
Transfer characteristics : BT.709<br>
Matrix coefficients : BT.709<br>
<br>
Audio<br>
ID : 2<br>
Format : E-AC-3<br>
Format/Info : Enhanced AC-3<br>
Commercial name : Dolby Digital Plus<br>
Codec ID : A_EAC3<br>
Duration : 22 min 46 s<br>
Bit rate mode : Constant<br>
Bit rate : 256 kb/s<br>
Channel(s) : 6 channels<br>
Channel layout : L R C LFE Ls Rs<br>
Sampling rate : 48.0 kHz<br>
Frame rate : 31.250 FPS (1536 SPF)<br>
Compression mode : Lossy<br>
Stream size : 41.7 MiB (3%)<br>
Language : English<br>
Service kind : Complete Main<br>
Default : Yes<br>
Forced : No<br>
<br>
Text #1<br>
ID : 3<br>
Format : UTF-8<br>
Codec ID : S_TEXT/UTF8<br>
Codec ID/Info : UTF-8 Plain Text<br>
Duration : 22 min 18 s<br>
Bit rate : 42 b/s<br>
Frame rate : 0.190 FPS<br>
Count of elements : 254<br>
Stream size : 6.89 KiB (0%)<br>
Title : SDH<br>
Language : English<br>
Default : No<br>
Forced : No<br>
<br>
Text #2<br>
ID : 4<br>
Format : UTF-8<br>
Codec ID : S_TEXT/UTF8<br>
Codec ID/Info : UTF-8 Plain Text<br>
Duration : 22 min 17 s<br>
Bit rate : 35 b/s<br>
Frame rate : 0.135 FPS<br>
Count of elements : 181<br>
Stream size : 5.86 KiB (0%)<br>
Title : European<br>
Language : Spanish<br>
Default : No<br>
Forced : No<br>
<br>
Text #3<br>
ID : 5<br>
Format : UTF-8<br>
Codec ID : S_TEXT/UTF8<br>
Codec ID/Info : UTF-8 Plain Text<br>
Duration : 22 min 17 s<br>
Bit rate : 34 b/s<br>
Frame rate : 0.132 FPS<br>
Count of elements : 176<br>
Stream size : 5.63 KiB (0%)<br>
Title : European<br>
Language : Portuguese<br>
Default : No<br>
Forced : No<br>
<br>
Menu<br>
00:00:00.375 : en:Recap<br>
00:00:56.890 : en:Scene 1<br>
00:02:08.002 : en:Intro<br>
00:02:53.047 : en:Scene 2<br>
00:07:50.095 : en:Scene 3<br>
00:13:36.233 : en:Scene 4<br>
00:22:16.336 : en:Credits<br>
<br>
<b><span style="text-decoration: underline">Episode 8: Time Bomb</span></b><br>
General<br>
Complete name : Wolverine.and.The.X-Men.S01E08.Time.Bomb.1080p.DSNP.WEB-DL.DDP5.1.H.264-Samuel.mkv<br>
Format : Matroska<br>
Format version : Version 4<br>
File size : 1.39 GiB<br>
Duration : 22 min 46 s<br>
Overall bit rate mode : Variable<br>
Overall bit rate : 8 737 kb/s<br>
Frame rate : 23.976 FPS<br>
Encoded date : 2024-01-07 08:29:02 UTC<br>
Writing application : mkvmerge v72.0.0 ('Minuano (Six-eight)') 64-bit<br>
Writing library : libebml v1.4.4 + libmatroska v1.7.1<br>
<br>
Video<br>
ID : 1<br>
Format : AVC<br>
Format/Info : Advanced Video Codec<br>
Format profile : High@L4<br>
Format settings : CABAC / 4 Ref Frames<br>
Format settings, CABAC : Yes<br>
Format settings, Reference frames : 4 frames<br>
Codec ID : V_MPEG4/ISO/AVC<br>
Duration : 22 min 46 s<br>
Bit rate mode : Variable<br>
Bit rate : 8 478 kb/s<br>
Maximum bit rate : 12.7 Mb/s<br>
Width : 1 920 pixels<br>
Height : 1 080 pixels<br>
Display aspect ratio : 16:9<br>
Frame rate mode : Constant<br>
Frame rate : 23.976 (24000/1001) FPS<br>
Color space : YUV<br>
Chroma subsampling : 4:2:0<br>
Bit depth : 8 bits<br>
Scan type : Progressive<br>
Bits/(Pixel*Frame) : 0.171<br>
Time code of first frame : 00:00:00;00<br>
Stream size : 1.35 GiB (97%)<br>
Default : Yes<br>
Forced : No<br>
Color range : Limited<br>
Color primaries : BT.709<br>
Transfer characteristics : BT.709<br>
Matrix coefficients : BT.709<br>
<br>
Audio<br>
ID : 2<br>
Format : E-AC-3<br>
Format/Info : Enhanced AC-3<br>
Commercial name : Dolby Digital Plus<br>
Codec ID : A_EAC3<br>
Duration : 22 min 46 s<br>
Bit rate mode : Constant<br>
Bit rate : 256 kb/s<br>
Channel(s) : 6 channels<br>
Channel layout : L R C LFE Ls Rs<br>
Sampling rate : 48.0 kHz<br>
Frame rate : 31.250 FPS (1536 SPF)<br>
Compression mode : Lossy<br>
Stream size : 41.7 MiB (3%)<br>
Language : English<br>
Service kind : Complete Main<br>
Default : Yes<br>
Forced : No<br>
<br>
Text #1<br>
ID : 3<br>
Format : UTF-8<br>
Codec ID : S_TEXT/UTF8<br>
Codec ID/Info : UTF-8 Plain Text<br>
Duration : 22 min 19 s<br>
Bit rate : 52 b/s<br>
Frame rate : 0.189 FPS<br>
Count of elements : 253<br>
Stream size : 8.66 KiB (0%)<br>
Title : SDH<br>
Language : English<br>
Default : No<br>
Forced : No<br>
<br>
Text #2<br>
ID : 4<br>
Format : UTF-8<br>
Codec ID : S_TEXT/UTF8<br>
Codec ID/Info : UTF-8 Plain Text<br>
Duration : 22 min 17 s<br>
Bit rate : 46 b/s<br>
Frame rate : 0.170 FPS<br>
Count of elements : 228<br>
Stream size : 7.55 KiB (0%)<br>
Title : European<br>
Language : Spanish<br>
Default : No<br>
Forced : No<br>
<br>
Text #3<br>
ID : 5<br>
Format : UTF-8<br>
Codec ID : S_TEXT/UTF8<br>
Codec ID/Info : UTF-8 Plain Text<br>
Duration : 22 min 17 s<br>
Bit rate : 45 b/s<br>
Frame rate : 0.164 FPS<br>
Count of elements : 220<br>
Stream size : 7.37 KiB (0%)<br>
Title : European<br>
Language : Portuguese<br>
Default : No<br>
Forced : No<br>
<br>
Menu<br>
00:00:00.041 : en:Recap<br>
00:01:11.237 : en:Scene 1<br>
00:03:26.915 : en:Intro<br>
00:04:11.960 : en:Scene 2<br>
00:10:43.227 : en:Scene 3<br>
00:16:24.943 : en:Scene 4<br>
00:22:16.336 : en:Credits<br>
<br>
<b><span style="text-decoration: underline">Episode 9: Future X</span></b><br>
General<br>
Complete name : Wolverine.and.The.X-Men.S01E09.Future.X.1080p.DSNP.WEB-DL.DDP5.1.H.264-Samuel.mkv<br>
Format : Matroska<br>
Format version : Version 4<br>
File size : 1.39 GiB<br>
Duration : 22 min 46 s<br>
Overall bit rate mode : Variable<br>
Overall bit rate : 8 756 kb/s<br>
Frame rate : 23.976 FPS<br>
Encoded date : 2024-01-07 08:32:43 UTC<br>
Writing application : mkvmerge v72.0.0 ('Minuano (Six-eight)') 64-bit<br>
Writing library : libebml v1.4.4 + libmatroska v1.7.1<br>
<br>
Video<br>
ID : 1<br>
Format : AVC<br>
Format/Info : Advanced Video Codec<br>
Format profile : High@L4<br>
Format settings : CABAC / 4 Ref Frames<br>
Format settings, CABAC : Yes<br>
Format settings, Reference frames : 4 frames<br>
Codec ID : V_MPEG4/ISO/AVC<br>
Duration : 22 min 46 s<br>
Bit rate mode : Variable<br>
Bit rate : 8 498 kb/s<br>
Maximum bit rate : 12.7 Mb/s<br>
Width : 1 920 pixels<br>
Height : 1 080 pixels<br>
Display aspect ratio : 16:9<br>
Frame rate mode : Constant<br>
Frame rate : 23.976 (24000/1001) FPS<br>
Color space : YUV<br>
Chroma subsampling : 4:2:0<br>
Bit depth : 8 bits<br>
Scan type : Progressive<br>
Bits/(Pixel*Frame) : 0.171<br>
Time code of first frame : 00:00:00;00<br>
Stream size : 1.35 GiB (97%)<br>
Default : Yes<br>
Forced : No<br>
Color range : Limited<br>
Color primaries : BT.709<br>
Transfer characteristics : BT.709<br>
Matrix coefficients : BT.709<br>
<br>
Audio<br>
ID : 2<br>
Format : E-AC-3<br>
Format/Info : Enhanced AC-3<br>
Commercial name : Dolby Digital Plus<br>
Codec ID : A_EAC3<br>
Duration : 22 min 46 s<br>
Bit rate mode : Constant<br>
Bit rate : 256 kb/s<br>
Channel(s) : 6 channels<br>
Channel layout : L R C LFE Ls Rs<br>
Sampling rate : 48.0 kHz<br>
Frame rate : 31.250 FPS (1536 SPF)<br>
Compression mode : Lossy<br>
Stream size : 41.7 MiB (3%)<br>
Language : English<br>
Service kind : Complete Main<br>
Default : Yes<br>
Forced : No<br>
<br>
Text #1<br>
ID : 3<br>
Format : UTF-8<br>
Codec ID : S_TEXT/UTF8<br>
Codec ID/Info : UTF-8 Plain Text<br>
Duration : 22 min 18 s<br>
Bit rate : 53 b/s<br>
Frame rate : 0.211 FPS<br>
Count of elements : 283<br>
Stream size : 8.67 KiB (0%)<br>
Title : SDH<br>
Language : English<br>
Default : No<br>
Forced : No<br>
<br>
Text #2<br>
ID : 4<br>
Format : UTF-8<br>
Codec ID : S_TEXT/UTF8<br>
Codec ID/Info : UTF-8 Plain Text<br>
Duration : 22 min 17 s<br>
Bit rate : 48 b/s<br>
Frame rate : 0.156 FPS<br>
Count of elements : 208<br>
Stream size : 7.95 KiB (0%)<br>
Title : European<br>
Language : Spanish<br>
Default : No<br>
Forced : No<br>
<br>
Text #3<br>
ID : 5<br>
Format : UTF-8<br>
Codec ID : S_TEXT/UTF8<br>
Codec ID/Info : UTF-8 Plain Text<br>
Duration : 22 min 17 s<br>
Bit rate : 46 b/s<br>
Frame rate : 0.153 FPS<br>
Count of elements : 205<br>
Stream size : 7.63 KiB (0%)<br>
Title : European<br>
Language : Portuguese<br>
Default : No<br>
Forced : No<br>
<br>
Menu<br>
00:00:00.041 : en:Recap<br>
00:01:05.565 : en:Scene 1<br>
00:03:09.772 : en:Intro<br>
00:03:54.817 : en:Scene 2<br>
00:08:05.027 : en:Scene 3<br>
00:14:36.627 : en:Scene 4<br>
00:22:16.336 : en:Credits<br>
<br>
<b><span style="text-decoration: underline">Episode 10: Greetings From Genosha</span></b><br>
General<br>
Complete name : Wolverine.and.The.X-Men.S01E10.Greetings.From.Genosha.1080p.DSNP.WEB-DL.DDP5.1.H.264-Samuel.mkv<br>
Format : Matroska<br>
Format version : Version 4<br>
File size : 1.39 GiB<br>
Duration : 22 min 46 s<br>
Overall bit rate mode : Variable<br>
Overall bit rate : 8 750 kb/s<br>
Frame rate : 23.976 FPS<br>
Encoded date : 2024-01-07 08:35:30 UTC<br>
Writing application : mkvmerge v72.0.0 ('Minuano (Six-eight)') 64-bit<br>
Writing library : libebml v1.4.4 + libmatroska v1.7.1<br>
<br>
Video<br>
ID : 1<br>
Format : AVC<br>
Format/Info : Advanced Video Codec<br>
Format profile : High@L4<br>
Format settings : CABAC / 4 Ref Frames<br>
Format settings, CABAC : Yes<br>
Format settings, Reference frames : 4 frames<br>
Codec ID : V_MPEG4/ISO/AVC<br>
Duration : 22 min 46 s<br>
Bit rate mode : Variable<br>
Bit rate : 8 491 kb/s<br>
Maximum bit rate : 12.7 Mb/s<br>
Width : 1 920 pixels<br>
Height : 1 080 pixels<br>
Display aspect ratio : 16:9<br>
Frame rate mode : Constant<br>
Frame rate : 23.976 (24000/1001) FPS<br>
Color space : YUV<br>
Chroma subsampling : 4:2:0<br>
Bit depth : 8 bits<br>
Scan type : Progressive<br>
Bits/(Pixel*Frame) : 0.171<br>
Time code of first frame : 00:00:00;00<br>
Stream size : 1.35 GiB (97%)<br>
Default : Yes<br>
Forced : No<br>
Color range : Limited<br>
Color primaries : BT.709<br>
Transfer characteristics : BT.709<br>
Matrix coefficients : BT.709<br>
<br>
Audio<br>
ID : 2<br>
Format : E-AC-3<br>
Format/Info : Enhanced AC-3<br>
Commercial name : Dolby Digital Plus<br>
Codec ID : A_EAC3<br>
Duration : 22 min 46 s<br>
Bit rate mode : Constant<br>
Bit rate : 256 kb/s<br>
Channel(s) : 6 channels<br>
Channel layout : L R C LFE Ls Rs<br>
Sampling rate : 48.0 kHz<br>
Frame rate : 31.250 FPS (1536 SPF)<br>
Compression mode : Lossy<br>
Stream size : 41.7 MiB (3%)<br>
Language : English<br>
Service kind : Complete Main<br>
Default : Yes<br>
Forced : No<br>
<br>
Text #1<br>
ID : 3<br>
Format : UTF-8<br>
Codec ID : S_TEXT/UTF8<br>
Codec ID/Info : UTF-8 Plain Text<br>
Duration : 22 min 18 s<br>
Bit rate : 48 b/s<br>
Frame rate : 0.194 FPS<br>
Count of elements : 260<br>
Stream size : 7.94 KiB (0%)<br>
Title : SDH<br>
Language : English<br>
Default : No<br>
Forced : No<br>
<br>
Text #2<br>
ID : 4<br>
Format : UTF-8<br>
Codec ID : S_TEXT/UTF8<br>
Codec ID/Info : UTF-8 Plain Text<br>
Duration : 22 min 41 s<br>
Bit rate : 42 b/s<br>
Frame rate : 0.163 FPS<br>
Count of elements : 222<br>
Stream size : 7.08 KiB (0%)<br>
Title : European<br>
Language : Spanish<br>
Default : No<br>
Forced : No<br>
<br>
Text #3<br>
ID : 5<br>
Format : UTF-8<br>
Codec ID : S_TEXT/UTF8<br>
Codec ID/Info : UTF-8 Plain Text<br>
Duration : 22 min 16 s<br>
Bit rate : 42 b/s<br>
Frame rate : 0.156 FPS<br>
Count of elements : 208<br>
Stream size : 6.90 KiB (0%)<br>
Title : European<br>
Language : Portuguese<br>
Default : No<br>
Forced : No<br>
<br>
Menu<br>
00:00:00.041 : en:Recap<br>
00:01:05.023 : en:Scene 1<br>
00:02:39.784 : en:Intro<br>
00:03:24.787 : en:Scene 2<br>
00:08:48.695 : en:Scene 3<br>
00:15:33.851 : en:Scene 4<br>
00:22:15.335 : en:Credits<br>
<br>
<b><span style="text-decoration: underline">Episode 11: Past Discretions</span></b><br>
General<br>
Complete name : Wolverine.and.The.X-Men.S01E11.Past.Discretions.1080p.DSNP.WEB-DL.DDP5.1.H.264-Samuel.mkv<br>
Format : Matroska<br>
Format version : Version 4<br>
File size : 1.39 GiB<br>
Duration : 22 min 46 s<br>
Overall bit rate mode : Variable<br>
Overall bit rate : 8 757 kb/s<br>
Frame rate : 23.976 FPS<br>
Encoded date : 2024-01-07 08:39:12 UTC<br>
Writing application : mkvmerge v72.0.0 ('Minuano (Six-eight)') 64-bit<br>
Writing library : libebml v1.4.4 + libmatroska v1.7.1<br>
<br>
Video<br>
ID : 1<br>
Format : AVC<br>
Format/Info : Advanced Video Codec<br>
Format profile : High@L4<br>
Format settings : CABAC / 4 Ref Frames<br>
Format settings, CABAC : Yes<br>
Format settings, Reference frames : 4 frames<br>
Codec ID : V_MPEG4/ISO/AVC<br>
Duration : 22 min 46 s<br>
Bit rate mode : Variable<br>
Bit rate : 8 499 kb/s<br>
Maximum bit rate : 12.7 Mb/s<br>
Width : 1 920 pixels<br>
Height : 1 080 pixels<br>
Display aspect ratio : 16:9<br>
Frame rate mode : Constant<br>
Frame rate : 23.976 (24000/1001) FPS<br>
Color space : YUV<br>
Chroma subsampling : 4:2:0<br>
Bit depth : 8 bits<br>
Scan type : Progressive<br>
Bits/(Pixel*Frame) : 0.171<br>
Time code of first frame : 00:00:00;00<br>
Stream size : 1.35 GiB (97%)<br>
Default : Yes<br>
Forced : No<br>
Color range : Limited<br>
Color primaries : BT.709<br>
Transfer characteristics : BT.709<br>
Matrix coefficients : BT.709<br>
<br>
Audio<br>
ID : 2<br>
Format : E-AC-3<br>
Format/Info : Enhanced AC-3<br>
Commercial name : Dolby Digital Plus<br>
Codec ID : A_EAC3<br>
Duration : 22 min 46 s<br>
Bit rate mode : Constant<br>
Bit rate : 256 kb/s<br>
Channel(s) : 6 channels<br>
Channel layout : L R C LFE Ls Rs<br>
Sampling rate : 48.0 kHz<br>
Frame rate : 31.250 FPS (1536 SPF)<br>
Compression mode : Lossy<br>
Stream size : 41.7 MiB (3%)<br>
Language : English<br>
Service kind : Complete Main<br>
Default : Yes<br>
Forced : No<br>
<br>
Text #1<br>
ID : 3<br>
Format : UTF-8<br>
Codec ID : S_TEXT/UTF8<br>
Codec ID/Info : UTF-8 Plain Text<br>
Duration : 21 min 36 s<br>
Bit rate : 42 b/s<br>
Frame rate : 0.181 FPS<br>
Count of elements : 234<br>
Stream size : 6.78 KiB (0%)<br>
Title : SDH<br>
Language : English<br>
Default : No<br>
Forced : No<br>
<br>
Text #2<br>
ID : 4<br>
Format : UTF-8<br>
Codec ID : S_TEXT/UTF8<br>
Codec ID/Info : UTF-8 Plain Text<br>
Duration : 21 min 40 s<br>
Bit rate : 38 b/s<br>
Frame rate : 0.142 FPS<br>
Count of elements : 184<br>
Stream size : 6.04 KiB (0%)<br>
Title : European<br>
Language : Spanish<br>
Default : No<br>
Forced : No<br>
<br>
Text #3<br>
ID : 5<br>
Format : UTF-8<br>
Codec ID : S_TEXT/UTF8<br>
Codec ID/Info : UTF-8 Plain Text<br>
Duration : 21 min 40 s<br>
Bit rate : 37 b/s<br>
Frame rate : 0.136 FPS<br>
Count of elements : 177<br>
Stream size : 6.02 KiB (0%)<br>
Title : European<br>
Language : Portuguese<br>
Default : No<br>
Forced : No<br>
<br>
Menu<br>
00:00:55.388 : en:Intro<br>
00:01:40.391 : en:Scene 1<br>
00:09:55.053 : en:Scene 2<br>
00:15:10.661 : en:Scene 3<br>
00:22:03.323 : en:Credits<br>
<br>
<b><span style="text-decoration: underline">Episode 12: eXcessive Force</span></b><br>
General<br>
Complete name : Wolverine.and.The.X-Men.S01E12.eXcessive.Force.1080p.DSNP.WEB-DL.DDP5.1.H.264-Samuel.mkv<br>
Format : Matroska<br>
Format version : Version 4<br>
File size : 1.39 GiB<br>
Duration : 22 min 48 s<br>
Overall bit rate mode : Variable<br>
Overall bit rate : 8 734 kb/s<br>
Frame rate : 23.976 FPS<br>
Encoded date : 2024-01-07 08:41:54 UTC<br>
Writing application : mkvmerge v72.0.0 ('Minuano (Six-eight)') 64-bit<br>
Writing library : libebml v1.4.4 + libmatroska v1.7.1<br>
<br>
Video<br>
ID : 1<br>
Format : AVC<br>
Format/Info : Advanced Video Codec<br>
Format profile : High@L4<br>
Format settings : CABAC / 4 Ref Frames<br>
Format settings, CABAC : Yes<br>
Format settings, Reference frames : 4 frames<br>
Codec ID : V_MPEG4/ISO/AVC<br>
Duration : 22 min 48 s<br>
Bit rate mode : Variable<br>
Bit rate : 8 476 kb/s<br>
Maximum bit rate : 12.7 Mb/s<br>
Width : 1 920 pixels<br>
Height : 1 080 pixels<br>
Display aspect ratio : 16:9<br>
Frame rate mode : Constant<br>
Frame rate : 23.976 (24000/1001) FPS<br>
Color space : YUV<br>
Chroma subsampling : 4:2:0<br>
Bit depth : 8 bits<br>
Scan type : Progressive<br>
Bits/(Pixel*Frame) : 0.170<br>
Time code of first frame : 00:00:00;00<br>
Stream size : 1.35 GiB (97%)<br>
Default : Yes<br>
Forced : No<br>
Color range : Limited<br>
Color primaries : BT.709<br>
Transfer characteristics : BT.709<br>
Matrix coefficients : BT.709<br>
<br>
Audio<br>
ID : 2<br>
Format : E-AC-3<br>
Format/Info : Enhanced AC-3<br>
Commercial name : Dolby Digital Plus<br>
Codec ID : A_EAC3<br>
Duration : 22 min 48 s<br>
Bit rate mode : Constant<br>
Bit rate : 256 kb/s<br>
Channel(s) : 6 channels<br>
Channel layout : L R C LFE Ls Rs<br>
Sampling rate : 48.0 kHz<br>
Frame rate : 31.250 FPS (1536 SPF)<br>
Compression mode : Lossy<br>
Stream size : 41.8 MiB (3%)<br>
Language : English<br>
Service kind : Complete Main<br>
Default : Yes<br>
Forced : No<br>
<br>
Text #1<br>
ID : 3<br>
Format : UTF-8<br>
Codec ID : S_TEXT/UTF8<br>
Codec ID/Info : UTF-8 Plain Text<br>
Duration : 22 min 21 s<br>
Bit rate : 42 b/s<br>
Frame rate : 0.190 FPS<br>
Count of elements : 255<br>
Stream size : 6.98 KiB (0%)<br>
Title : SDH<br>
Language : English<br>
Default : No<br>
Forced : No<br>
<br>
Text #2<br>
ID : 4<br>
Format : UTF-8<br>
Codec ID : S_TEXT/UTF8<br>
Codec ID/Info : UTF-8 Plain Text<br>
Duration : 22 min 26 s<br>
Bit rate : 37 b/s<br>
Frame rate : 0.148 FPS<br>
Count of elements : 199<br>
Stream size : 6.17 KiB (0%)<br>
Title : European<br>
Language : Spanish<br>
Default : No<br>
Forced : No<br>
<br>
Text #3<br>
ID : 5<br>
Format : UTF-8<br>
Codec ID : S_TEXT/UTF8<br>
Codec ID/Info : UTF-8 Plain Text<br>
Duration : 22 min 26 s<br>
Bit rate : 37 b/s<br>
Frame rate : 0.143 FPS<br>
Count of elements : 193<br>
Stream size : 6.21 KiB (0%)<br>
Title : European<br>
Language : Portuguese<br>
Default : No<br>
Forced : No<br>
<br>
Menu<br>
00:00:00.083 : en:Recap<br>
00:01:15.116 : en:Scene 1<br>
00:02:58.761 : en:Intro<br>
00:03:43.765 : en:Scene 2<br>
00:10:04.897 : en:Scene 3<br>
00:15:37.062 : en:Scene 4<br>
00:22:19.339 : en:Credits<br>
<br>
<b><span style="text-decoration: underline">Episode 13: Battle Lines</span></b><br>
General<br>
Complete name : Wolverine.and.The.X-Men.S01E13.Battle.Lines.1080p.DSNP.WEB-DL.DDP5.1.H.264-Samuel.mkv<br>
Format : Matroska<br>
Format version : Version 4<br>
File size : 1.39 GiB<br>
Duration : 22 min 46 s<br>
Overall bit rate mode : Variable<br>
Overall bit rate : 8 741 kb/s<br>
Frame rate : 23.976 FPS<br>
Encoded date : 2024-01-07 08:44:27 UTC<br>
Writing application : mkvmerge v72.0.0 ('Minuano (Six-eight)') 64-bit<br>
Writing library : libebml v1.4.4 + libmatroska v1.7.1<br>
<br>
Video<br>
ID : 1<br>
Format : AVC<br>
Format/Info : Advanced Video Codec<br>
Format profile : High@L4<br>
Format settings : CABAC / 4 Ref Frames<br>
Format settings, CABAC : Yes<br>
Format settings, Reference frames : 4 frames<br>
Codec ID : V_MPEG4/ISO/AVC<br>
Duration : 22 min 46 s<br>
Bit rate mode : Variable<br>
Bit rate : 8 483 kb/s<br>
Maximum bit rate : 12.7 Mb/s<br>
Width : 1 920 pixels<br>
Height : 1 080 pixels<br>
Display aspect ratio : 16:9<br>
Frame rate mode : Constant<br>
Frame rate : 23.976 (24000/1001) FPS<br>
Color space : YUV<br>
Chroma subsampling : 4:2:0<br>
Bit depth : 8 bits<br>
Scan type : Progressive<br>
Bits/(Pixel*Frame) : 0.171<br>
Time code of first frame : 00:00:00;00<br>
Stream size : 1.35 GiB (97%)<br>
Default : Yes<br>
Forced : No<br>
Color range : Limited<br>
Color primaries : BT.709<br>
Transfer characteristics : BT.709<br>
Matrix coefficients : BT.709<br>
<br>
Audio<br>
ID : 2<br>
Format : E-AC-3<br>
Format/Info : Enhanced AC-3<br>
Commercial name : Dolby Digital Plus<br>
Codec ID : A_EAC3<br>
Duration : 22 min 46 s<br>
Bit rate mode : Constant<br>
Bit rate : 256 kb/s<br>
Channel(s) : 6 channels<br>
Channel layout : L R C LFE Ls Rs<br>
Sampling rate : 48.0 kHz<br>
Frame rate : 31.250 FPS (1536 SPF)<br>
Compression mode : Lossy<br>
Stream size : 41.7 MiB (3%)<br>
Language : English<br>
Service kind : Complete Main<br>
Default : Yes<br>
Forced : No<br>
<br>
Text #1<br>
ID : 3<br>
Format : UTF-8<br>
Codec ID : S_TEXT/UTF8<br>
Codec ID/Info : UTF-8 Plain Text<br>
Duration : 22 min 19 s<br>
Bit rate : 54 b/s<br>
Frame rate : 0.214 FPS<br>
Count of elements : 287<br>
Stream size : 8.98 KiB (0%)<br>
Title : SDH<br>
Language : English<br>
Default : No<br>
Forced : No<br>
<br>
Text #2<br>
ID : 4<br>
Format : UTF-8<br>
Codec ID : S_TEXT/UTF8<br>
Codec ID/Info : UTF-8 Plain Text<br>
Duration : 22 min 41 s<br>
Bit rate : 49 b/s<br>
Frame rate : 0.184 FPS<br>
Count of elements : 250<br>
Stream size : 8.25 KiB (0%)<br>
Title : European<br>
Language : Spanish<br>
Default : No<br>
Forced : No<br>
<br>
Text #3<br>
ID : 5<br>
Format : UTF-8<br>
Codec ID : S_TEXT/UTF8<br>
Codec ID/Info : UTF-8 Plain Text<br>
Duration : 22 min 30 s<br>
Bit rate : 47 b/s<br>
Frame rate : 0.161 FPS<br>
Count of elements : 218<br>
Stream size : 7.90 KiB (0%)<br>
Title : European<br>
Language : Portuguese<br>
Default : No<br>
Forced : No<br>
<br>
Menu<br>
00:00:00.041 : en:Recap<br>
00:00:26.693 : en:Scene 1<br>
00:02:26.521 : en:Intro<br>
00:03:11.566 : en:Scene 2<br>
00:08:42.189 : en:Scene 3<br>
00:15:17.042 : en:Scene 4<br>
00:22:17.337 : en:Credits<br>
<br>
<b><span style="text-decoration: underline">Episode 14: Stolen Lives</span></b><br>
General<br>
Complete name : Wolverine.and.The.X-Men.S01E14.Stolen.Lives.1080p.DSNP.WEB-DL.DDP5.1.H.264-Samuel.mkv<br>
Format : Matroska<br>
Format version : Version 4<br>
File size : 1.39 GiB<br>
Duration : 22 min 47 s<br>
Overall bit rate mode : Variable<br>
Overall bit rate : 8 731 kb/s<br>
Frame rate : 23.976 FPS<br>
Encoded date : 2024-01-07 08:47:01 UTC<br>
Writing application : mkvmerge v72.0.0 ('Minuano (Six-eight)') 64-bit<br>
Writing library : libebml v1.4.4 + libmatroska v1.7.1<br>
<br>
Video<br>
ID : 1<br>
Format : AVC<br>
Format/Info : Advanced Video Codec<br>
Format profile : High@L4<br>
Format settings : CABAC / 4 Ref Frames<br>
Format settings, CABAC : Yes<br>
Format settings, Reference frames : 4 frames<br>
Codec ID : V_MPEG4/ISO/AVC<br>
Duration : 22 min 47 s<br>
Bit rate mode : Variable<br>
Bit rate : 8 473 kb/s<br>
Maximum bit rate : 12.7 Mb/s<br>
Width : 1 920 pixels<br>
Height : 1 080 pixels<br>
Display aspect ratio : 16:9<br>
Frame rate mode : Constant<br>
Frame rate : 23.976 (24000/1001) FPS<br>
Color space : YUV<br>
Chroma subsampling : 4:2:0<br>
Bit depth : 8 bits<br>
Scan type : Progressive<br>
Bits/(Pixel*Frame) : 0.170<br>
Time code of first frame : 00:00:00;00<br>
Stream size : 1.35 GiB (97%)<br>
Default : Yes<br>
Forced : No<br>
Color range : Limited<br>
Color primaries : BT.709<br>
Transfer characteristics : BT.709<br>
Matrix coefficients : BT.709<br>
<br>
Audio<br>
ID : 2<br>
Format : E-AC-3<br>
Format/Info : Enhanced AC-3<br>
Commercial name : Dolby Digital Plus<br>
Codec ID : A_EAC3<br>
Duration : 22 min 47 s<br>
Bit rate mode : Constant<br>
Bit rate : 256 kb/s<br>
Channel(s) : 6 channels<br>
Channel layout : L R C LFE Ls Rs<br>
Sampling rate : 48.0 kHz<br>
Frame rate : 31.250 FPS (1536 SPF)<br>
Compression mode : Lossy<br>
Stream size : 41.7 MiB (3%)<br>
Language : English<br>
Service kind : Complete Main<br>
Default : Yes<br>
Forced : No<br>
<br>
Text #1<br>
ID : 3<br>
Format : UTF-8<br>
Codec ID : S_TEXT/UTF8<br>
Codec ID/Info : UTF-8 Plain Text<br>
Duration : 22 min 19 s<br>
Bit rate : 44 b/s<br>
Frame rate : 0.219 FPS<br>
Count of elements : 293<br>
Stream size : 7.33 KiB (0%)<br>
Title : SDH<br>
Language : English<br>
Default : No<br>
Forced : No<br>
<br>
Text #2<br>
ID : 4<br>
Format : UTF-8<br>
Codec ID : S_TEXT/UTF8<br>
Codec ID/Info : UTF-8 Plain Text<br>
Duration : 22 min 30 s<br>
Bit rate : 37 b/s<br>
Frame rate : 0.149 FPS<br>
Count of elements : 201<br>
Stream size : 6.22 KiB (0%)<br>
Title : European<br>
Language : Spanish<br>
Default : No<br>
Forced : No<br>
<br>
Text #3<br>
ID : 5<br>
Format : UTF-8<br>
Codec ID : S_TEXT/UTF8<br>
Codec ID/Info : UTF-8 Plain Text<br>
Duration : 22 min 30 s<br>
Bit rate : 39 b/s<br>
Frame rate : 0.144 FPS<br>
Count of elements : 195<br>
Stream size : 6.44 KiB (0%)<br>
Title : European<br>
Language : Portuguese<br>
Default : No<br>
Forced : No<br>
<br>
Menu<br>
00:00:00.041 : en:Recap<br>
00:01:56.616 : en:Scene 1<br>
00:03:16.112 : en:Intro<br>
00:04:01.241 : en:Scene 2<br>
00:09:28.360 : en:Scene 3<br>
00:16:11.180 : en:Scene 4<br>
00:22:17.337 : en:Credits<br>
<br>
<b><span style="text-decoration: underline">Episode 15: Hunting Grounds</span></b><br>
General<br>
Complete name : Wolverine.and.The.X-Men.S01E15.Hunting.Grounds.1080p.DSNP.WEB-DL.DDP5.1.H.264-Samuel.mkv<br>
Format : Matroska<br>
Format version : Version 4<br>
File size : 1.39 GiB<br>
Duration : 22 min 47 s<br>
Overall bit rate mode : Variable<br>
Overall bit rate : 8 717 kb/s<br>
Frame rate : 23.976 FPS<br>
Encoded date : 2024-01-07 08:49:32 UTC<br>
Writing application : mkvmerge v72.0.0 ('Minuano (Six-eight)') 64-bit<br>
Writing library : libebml v1.4.4 + libmatroska v1.7.1<br>
<br>
Video<br>
ID : 1<br>
Format : AVC<br>
Format/Info : Advanced Video Codec<br>
Format profile : High@L4<br>
Format settings : CABAC / 4 Ref Frames<br>
Format settings, CABAC : Yes<br>
Format settings, Reference frames : 4 frames<br>
Codec ID : V_MPEG4/ISO/AVC<br>
Duration : 22 min 47 s<br>
Bit rate mode : Variable<br>
Bit rate : 8 459 kb/s<br>
Maximum bit rate : 12.7 Mb/s<br>
Width : 1 920 pixels<br>
Height : 1 080 pixels<br>
Display aspect ratio : 16:9<br>
Frame rate mode : Constant<br>
Frame rate : 23.976 (24000/1001) FPS<br>
Color space : YUV<br>
Chroma subsampling : 4:2:0<br>
Bit depth : 8 bits<br>
Scan type : Progressive<br>
Bits/(Pixel*Frame) : 0.170<br>
Time code of first frame : 00:00:00;00<br>
Stream size : 1.35 GiB (97%)<br>
Default : Yes<br>
Forced : No<br>
Color range : Limited<br>
Color primaries : BT.709<br>
Transfer characteristics : BT.709<br>
Matrix coefficients : BT.709<br>
<br>
Audio<br>
ID : 2<br>
Format : E-AC-3<br>
Format/Info : Enhanced AC-3<br>
Commercial name : Dolby Digital Plus<br>
Codec ID : A_EAC3<br>
Duration : 22 min 47 s<br>
Bit rate mode : Constant<br>
Bit rate : 256 kb/s<br>
Channel(s) : 6 channels<br>
Channel layout : L R C LFE Ls Rs<br>
Sampling rate : 48.0 kHz<br>
Frame rate : 31.250 FPS (1536 SPF)<br>
Compression mode : Lossy<br>
Stream size : 41.7 MiB (3%)<br>
Language : English<br>
Service kind : Complete Main<br>
Default : Yes<br>
Forced : No<br>
<br>
Text #1<br>
ID : 3<br>
Format : UTF-8<br>
Codec ID : S_TEXT/UTF8<br>
Codec ID/Info : UTF-8 Plain Text<br>
Duration : 22 min 18 s<br>
Bit rate : 55 b/s<br>
Frame rate : 0.235 FPS<br>
Count of elements : 314<br>
Stream size : 9.12 KiB (0%)<br>
Title : SDH<br>
Language : English<br>
Default : No<br>
Forced : No<br>
<br>
Text #2<br>
ID : 4<br>
Format : UTF-8<br>
Codec ID : S_TEXT/UTF8<br>
Codec ID/Info : UTF-8 Plain Text<br>
Duration : 22 min 25 s<br>
Bit rate : 48 b/s<br>
Frame rate : 0.175 FPS<br>
Count of elements : 235<br>
Stream size : 8.02 KiB (0%)<br>
Title : European<br>
Language : Spanish<br>
Default : No<br>
Forced : No<br>
<br>
Text #3<br>
ID : 5<br>
Format : UTF-8<br>
Codec ID : S_TEXT/UTF8<br>
Codec ID/Info : UTF-8 Plain Text<br>
Duration : 22 min 25 s<br>
Bit rate : 48 b/s<br>
Frame rate : 0.172 FPS<br>
Count of elements : 232<br>
Stream size : 7.94 KiB (0%)<br>
Title : European<br>
Language : Portuguese<br>
Default : No<br>
Forced : No<br>
<br>
Menu<br>
00:00:00.041 : en:Recap<br>
00:00:40.165 : en:Scene 1<br>
00:01:45.271 : en:Intro<br>
00:02:30.275 : en:Scene 2<br>
00:09:57.222 : en:Scene 3<br>
00:15:33.475 : en:Scene 4<br>
00:22:16.336 : en:Credits<br>
<br>
<b><span style="text-decoration: underline">Episode 16: Badlands</span></b><br>
General<br>
Complete name : Wolverine.and.The.X-Men.S01E16.Badlands.1080p.DSNP.WEB-DL.DDP5.1.H.264-Samuel.mkv<br>
Format : Matroska<br>
Format version : Version 4<br>
File size : 1.39 GiB<br>
Duration : 22 min 47 s<br>
Overall bit rate mode : Variable<br>
Overall bit rate : 8 727 kb/s<br>
Frame rate : 23.976 FPS<br>
Encoded date : 2024-01-07 08:53:01 UTC<br>
Writing application : mkvmerge v72.0.0 ('Minuano (Six-eight)') 64-bit<br>
Writing library : libebml v1.4.4 + libmatroska v1.7.1<br>
<br>
Video<br>
ID : 1<br>
Format : AVC<br>
Format/Info : Advanced Video Codec<br>
Format profile : High@L4<br>
Format settings : CABAC / 4 Ref Frames<br>
Format settings, CABAC : Yes<br>
Format settings, Reference frames : 4 frames<br>
Codec ID : V_MPEG4/ISO/AVC<br>
Duration : 22 min 47 s<br>
Bit rate mode : Variable<br>
Bit rate : 8 469 kb/s<br>
Maximum bit rate : 12.7 Mb/s<br>
Width : 1 920 pixels<br>
Height : 1 080 pixels<br>
Display aspect ratio : 16:9<br>
Frame rate mode : Constant<br>
Frame rate : 23.976 (24000/1001) FPS<br>
Color space : YUV<br>
Chroma subsampling : 4:2:0<br>
Bit depth : 8 bits<br>
Scan type : Progressive<br>
Bits/(Pixel*Frame) : 0.170<br>
Time code of first frame : 00:00:00;00<br>
Stream size : 1.35 GiB (97%)<br>
Default : Yes<br>
Forced : No<br>
Color range : Limited<br>
Color primaries : BT.709<br>
Transfer characteristics : BT.709<br>
Matrix coefficients : BT.709<br>
<br>
Audio<br>
ID : 2<br>
Format : E-AC-3<br>
Format/Info : Enhanced AC-3<br>
Commercial name : Dolby Digital Plus<br>
Codec ID : A_EAC3<br>
Duration : 22 min 47 s<br>
Bit rate mode : Constant<br>
Bit rate : 256 kb/s<br>
Channel(s) : 6 channels<br>
Channel layout : L R C LFE Ls Rs<br>
Sampling rate : 48.0 kHz<br>
Frame rate : 31.250 FPS (1536 SPF)<br>
Compression mode : Lossy<br>
Stream size : 41.7 MiB (3%)<br>
Language : English<br>
Service kind : Complete Main<br>
Default : Yes<br>
Forced : No<br>
<br>
Text #1<br>
ID : 3<br>
Format : UTF-8<br>
Codec ID : S_TEXT/UTF8<br>
Codec ID/Info : UTF-8 Plain Text<br>
Duration : 22 min 13 s<br>
Bit rate : 33 b/s<br>
Frame rate : 0.145 FPS<br>
Count of elements : 193<br>
Stream size : 5.39 KiB (0%)<br>
Title : SDH<br>
Language : English<br>
Default : No<br>
Forced : No<br>
<br>
Text #2<br>
ID : 4<br>
Format : UTF-8<br>
Codec ID : S_TEXT/UTF8<br>
Codec ID/Info : UTF-8 Plain Text<br>
Duration : 22 min 27 s<br>
Bit rate : 30 b/s<br>
Frame rate : 0.119 FPS<br>
Count of elements : 161<br>
Stream size : 4.99 KiB (0%)<br>
Title : European<br>
Language : Spanish<br>
Default : No<br>
Forced : No<br>
<br>
Text #3<br>
ID : 5<br>
Format : UTF-8<br>
Codec ID : S_TEXT/UTF8<br>
Codec ID/Info : UTF-8 Plain Text<br>
Duration : 22 min 27 s<br>
Bit rate : 29 b/s<br>
Frame rate : 0.119 FPS<br>
Count of elements : 160<br>
Stream size : 4.91 KiB (0%)<br>
Title : European<br>
Language : Portuguese<br>
Default : No<br>
Forced : No<br>
<br>
Menu<br>
00:00:00.041 : en:Recap<br>
00:00:27.277 : en:Scene 1<br>
00:02:18.179 : en:Intro<br>
00:03:03.266 : en:Scene 2<br>
00:07:53.223 : en:Scene 3<br>
00:13:28.183 : en:Scene 4<br>
00:22:10.330 : en:Credits<br>
<br>
<b><span style="text-decoration: underline">Episode 17: Code of Conduct</span></b><br>
General<br>
Complete name : Wolverine.and.The.X-Men.S01E17.Code.of.Conduct.1080p.DSNP.WEB-DL.DDP5.1.H.264-Samuel.mkv<br>
Format : Matroska<br>
Format version : Version 4<br>
File size : 1.39 GiB<br>
Duration : 22 min 48 s<br>
Overall bit rate mode : Variable<br>
Overall bit rate : 8 751 kb/s<br>
Frame rate : 23.976 FPS<br>
Encoded date : 2024-01-07 08:55:43 UTC<br>
Writing application : mkvmerge v72.0.0 ('Minuano (Six-eight)') 64-bit<br>
Writing library : libebml v1.4.4 + libmatroska v1.7.1<br>
<br>
Video<br>
ID : 1<br>
Format : AVC<br>
Format/Info : Advanced Video Codec<br>
Format profile : High@L4<br>
Format settings : CABAC / 4 Ref Frames<br>
Format settings, CABAC : Yes<br>
Format settings, Reference frames : 4 frames<br>
Codec ID : V_MPEG4/ISO/AVC<br>
Duration : 22 min 48 s<br>
Bit rate mode : Variable<br>
Bit rate : 8 493 kb/s<br>
Maximum bit rate : 12.7 Mb/s<br>
Width : 1 920 pixels<br>
Height : 1 080 pixels<br>
Display aspect ratio : 16:9<br>
Frame rate mode : Constant<br>
Frame rate : 23.976 (24000/1001) FPS<br>
Color space : YUV<br>
Chroma subsampling : 4:2:0<br>
Bit depth : 8 bits<br>
Scan type : Progressive<br>
Bits/(Pixel*Frame) : 0.171<br>
Time code of first frame : 00:00:00;00<br>
Stream size : 1.35 GiB (97%)<br>
Default : Yes<br>
Forced : No<br>
Color range : Limited<br>
Color primaries : BT.709<br>
Transfer characteristics : BT.709<br>
Matrix coefficients : BT.709<br>
<br>
Audio<br>
ID : 2<br>
Format : E-AC-3<br>
Format/Info : Enhanced AC-3<br>
Commercial name : Dolby Digital Plus<br>
Codec ID : A_EAC3<br>
Duration : 22 min 48 s<br>
Bit rate mode : Constant<br>
Bit rate : 256 kb/s<br>
Channel(s) : 6 channels<br>
Channel layout : L R C LFE Ls Rs<br>
Sampling rate : 48.0 kHz<br>
Frame rate : 31.250 FPS (1536 SPF)<br>
Compression mode : Lossy<br>
Stream size : 41.8 MiB (3%)<br>
Language : English<br>
Service kind : Complete Main<br>
Default : Yes<br>
Forced : No<br>
<br>
Text #1<br>
ID : 3<br>
Format : UTF-8<br>
Codec ID : S_TEXT/UTF8<br>
Codec ID/Info : UTF-8 Plain Text<br>
Duration : 21 min 59 s<br>
Bit rate : 40 b/s<br>
Frame rate : 0.208 FPS<br>
Count of elements : 274<br>
Stream size : 6.58 KiB (0%)<br>
Title : SDH<br>
Language : English<br>
Default : No<br>
Forced : No<br>
<br>
Text #2<br>
ID : 4<br>
Format : UTF-8<br>
Codec ID : S_TEXT/UTF8<br>
Codec ID/Info : UTF-8 Plain Text<br>
Duration : 20 min 23 s<br>
Bit rate : 40 b/s<br>
Frame rate : 0.160 FPS<br>
Count of elements : 196<br>
Stream size : 6.01 KiB (0%)<br>
Title : European<br>
Language : Spanish<br>
Default : No<br>
Forced : No<br>
<br>
Text #3<br>
ID : 5<br>
Format : UTF-8<br>
Codec ID : S_TEXT/UTF8<br>
Codec ID/Info : UTF-8 Plain Text<br>
Duration : 20 min 23 s<br>
Bit rate : 39 b/s<br>
Frame rate : 0.161 FPS<br>
Count of elements : 197<br>
Stream size : 5.96 KiB (0%)<br>
Title : European<br>
Language : Portuguese<br>
Default : No<br>
Forced : No<br>
<br>
Menu<br>
00:02:30.233 : en:Intro<br>
00:03:15.445 : en:Scene 1<br>
00:06:43.111 : en:Scene 2<br>
00:13:08.997 : en:Scene 3<br>
00:22:08.328 : en:Credits<br>
<br>
<b><span style="text-decoration: underline">Episode 18: Backlash</span></b><br>
General<br>
Complete name : Wolverine.and.The.X-Men.S01E18.Backlash.1080p.DSNP.WEB-DL.DDP5.1.H.264-Samuel.mkv<br>
Format : Matroska<br>
Format version : Version 4<br>
File size : 1.39 GiB<br>
Duration : 22 min 47 s<br>
Overall bit rate mode : Variable<br>
Overall bit rate : 8 755 kb/s<br>
Frame rate : 23.976 FPS<br>
Encoded date : 2024-01-07 08:59:15 UTC<br>
Writing application : mkvmerge v72.0.0 ('Minuano (Six-eight)') 64-bit<br>
Writing library : libebml v1.4.4 + libmatroska v1.7.1<br>
<br>
Video<br>
ID : 1<br>
Format : AVC<br>
Format/Info : Advanced Video Codec<br>
Format profile : High@L4<br>
Format settings : CABAC / 4 Ref Frames<br>
Format settings, CABAC : Yes<br>
Format settings, Reference frames : 4 frames<br>
Codec ID : V_MPEG4/ISO/AVC<br>
Duration : 22 min 47 s<br>
Bit rate mode : Variable<br>
Bit rate : 8 496 kb/s<br>
Maximum bit rate : 12.7 Mb/s<br>
Width : 1 920 pixels<br>
Height : 1 080 pixels<br>
Display aspect ratio : 16:9<br>
Frame rate mode : Constant<br>
Frame rate : 23.976 (24000/1001) FPS<br>
Color space : YUV<br>
Chroma subsampling : 4:2:0<br>
Bit depth : 8 bits<br>
Scan type : Progressive<br>
Bits/(Pixel*Frame) : 0.171<br>
Time code of first frame : 00:00:00;00<br>
Stream size : 1.35 GiB (97%)<br>
Default : Yes<br>
Forced : No<br>
Color range : Limited<br>
Color primaries : BT.709<br>
Transfer characteristics : BT.709<br>
Matrix coefficients : BT.709<br>
<br>
Audio<br>
ID : 2<br>
Format : E-AC-3<br>
Format/Info : Enhanced AC-3<br>
Commercial name : Dolby Digital Plus<br>
Codec ID : A_EAC3<br>
Duration : 22 min 47 s<br>
Bit rate mode : Constant<br>
Bit rate : 256 kb/s<br>
Channel(s) : 6 channels<br>
Channel layout : L R C LFE Ls Rs<br>
Sampling rate : 48.0 kHz<br>
Frame rate : 31.250 FPS (1536 SPF)<br>
Compression mode : Lossy<br>
Stream size : 41.7 MiB (3%)<br>
Language : English<br>
Service kind : Complete Main<br>
Default : Yes<br>
Forced : No<br>
<br>
Text #1<br>
ID : 3<br>
Format : UTF-8<br>
Codec ID : S_TEXT/UTF8<br>
Codec ID/Info : UTF-8 Plain Text<br>
Duration : 22 min 16 s<br>
Bit rate : 64 b/s<br>
Frame rate : 0.231 FPS<br>
Count of elements : 309<br>
Stream size : 10.6 KiB (0%)<br>
Title : SDH<br>
Language : English<br>
Default : No<br>
Forced : No<br>
<br>
Text #2<br>
ID : 4<br>
Format : UTF-8<br>
Codec ID : S_TEXT/UTF8<br>
Codec ID/Info : UTF-8 Plain Text<br>
Duration : 22 min 29 s<br>
Bit rate : 58 b/s<br>
Frame rate : 0.199 FPS<br>
Count of elements : 269<br>
Stream size : 9.64 KiB (0%)<br>
Title : European<br>
Language : Spanish<br>
Default : No<br>
Forced : No<br>
<br>
Text #3<br>
ID : 5<br>
Format : UTF-8<br>
Codec ID : S_TEXT/UTF8<br>
Codec ID/Info : UTF-8 Plain Text<br>
Duration : 22 min 29 s<br>
Bit rate : 58 b/s<br>
Frame rate : 0.202 FPS<br>
Count of elements : 273<br>
Stream size : 9.62 KiB (0%)<br>
Title : European<br>
Language : Portuguese<br>
Default : No<br>
Forced : No<br>
<br>
Menu<br>
00:00:00.041 : en:Recap<br>
00:00:23.440 : en:Scene 1<br>
00:02:40.743 : en:Intro<br>
00:03:25.955 : en:Scene 2<br>
00:08:32.179 : en:Scene 3<br>
00:15:33.934 : en:Scene 4<br>
00:22:13.333 : en:Credits<br>
<br>
<b><span style="text-decoration: underline">Episode 19: Guardian Angel</span></b><br>
General<br>
Complete name : Wolverine.and.The.X-Men.S01E19.Guardian.Angel.1080p.DSNP.WEB-DL.DDP5.1.H.264-Samuel.mkv<br>
Format : Matroska<br>
Format version : Version 4<br>
File size : 1.39 GiB<br>
Duration : 22 min 47 s<br>
Overall bit rate mode : Variable<br>
Overall bit rate : 8 714 kb/s<br>
Frame rate : 23.976 FPS<br>
Encoded date : 2024-01-07 09:01:59 UTC<br>
Writing application : mkvmerge v72.0.0 ('Minuano (Six-eight)') 64-bit<br>
Writing library : libebml v1.4.4 + libmatroska v1.7.1<br>
<br>
Video<br>
ID : 1<br>
Format : AVC<br>
Format/Info : Advanced Video Codec<br>
Format profile : High@L4<br>
Format settings : CABAC / 4 Ref Frames<br>
Format settings, CABAC : Yes<br>
Format settings, Reference frames : 4 frames<br>
Codec ID : V_MPEG4/ISO/AVC<br>
Duration : 22 min 47 s<br>
Bit rate mode : Variable<br>
Bit rate : 8 456 kb/s<br>
Maximum bit rate : 12.7 Mb/s<br>
Width : 1 920 pixels<br>
Height : 1 080 pixels<br>
Display aspect ratio : 16:9<br>
Frame rate mode : Constant<br>
Frame rate : 23.976 (24000/1001) FPS<br>
Color space : YUV<br>
Chroma subsampling : 4:2:0<br>
Bit depth : 8 bits<br>
Scan type : Progressive<br>
Bits/(Pixel*Frame) : 0.170<br>
Time code of first frame : 00:00:00;00<br>
Stream size : 1.35 GiB (97%)<br>
Default : Yes<br>
Forced : No<br>
Color range : Limited<br>
Color primaries : BT.709<br>
Transfer characteristics : BT.709<br>
Matrix coefficients : BT.709<br>
<br>
Audio<br>
ID : 2<br>
Format : E-AC-3<br>
Format/Info : Enhanced AC-3<br>
Commercial name : Dolby Digital Plus<br>
Codec ID : A_EAC3<br>
Duration : 22 min 47 s<br>
Bit rate mode : Constant<br>
Bit rate : 256 kb/s<br>
Channel(s) : 6 channels<br>
Channel layout : L R C LFE Ls Rs<br>
Sampling rate : 48.0 kHz<br>
Frame rate : 31.250 FPS (1536 SPF)<br>
Compression mode : Lossy<br>
Stream size : 41.7 MiB (3%)<br>
Language : English<br>
Service kind : Complete Main<br>
Default : Yes<br>
Forced : No<br>
<br>
Text #1<br>
ID : 3<br>
Format : UTF-8<br>
Codec ID : S_TEXT/UTF8<br>
Codec ID/Info : UTF-8 Plain Text<br>
Duration : 22 min 19 s<br>
Bit rate : 54 b/s<br>
Frame rate : 0.199 FPS<br>
Count of elements : 267<br>
Stream size : 8.90 KiB (0%)<br>
Title : SDH<br>
Language : English<br>
Default : No<br>
Forced : No<br>
<br>
Text #2<br>
ID : 4<br>
Format : UTF-8<br>
Codec ID : S_TEXT/UTF8<br>
Codec ID/Info : UTF-8 Plain Text<br>
Duration : 22 min 38 s<br>
Bit rate : 49 b/s<br>
Frame rate : 0.188 FPS<br>
Count of elements : 256<br>
Stream size : 8.13 KiB (0%)<br>
Title : European<br>
Language : Spanish<br>
Default : No<br>
Forced : No<br>
<br>
Text #3<br>
ID : 5<br>
Format : UTF-8<br>
Codec ID : S_TEXT/UTF8<br>
Codec ID/Info : UTF-8 Plain Text<br>
Duration : 22 min 38 s<br>
Bit rate : 48 b/s<br>
Frame rate : 0.188 FPS<br>
Count of elements : 256<br>
Stream size : 8.01 KiB (0%)<br>
Title : European<br>
Language : Portuguese<br>
Default : No<br>
Forced : No<br>
<br>
Menu<br>
00:00:00.041 : en:Recap<br>
00:00:51.926 : en:Scene 1<br>
00:02:35.446 : en:Intro<br>
00:03:20.575 : en:Scene 2<br>
00:09:55.012 : en:Scene 3<br>
00:15:48.240 : en:Scene 4<br>
00:22:18.338 : en:Credits<br>
<br>
<b><span style="text-decoration: underline">Episode 20: Breakdown</span></b><br>
General<br>
Complete name : Wolverine.and.The.X-Men.S01E20.Breakdown.1080p.DSNP.WEB-DL.DDP5.1.H.264-Samuel.mkv<br>
Format : Matroska<br>
Format version : Version 4<br>
File size : 1.39 GiB<br>
Duration : 22 min 46 s<br>
Overall bit rate mode : Variable<br>
Overall bit rate : 8 753 kb/s<br>
Frame rate : 23.976 FPS<br>
Encoded date : 2024-01-07 09:04:32 UTC<br>
Writing application : mkvmerge v72.0.0 ('Minuano (Six-eight)') 64-bit<br>
Writing library : libebml v1.4.4 + libmatroska v1.7.1<br>
<br>
Video<br>
ID : 1<br>
Format : AVC<br>
Format/Info : Advanced Video Codec<br>
Format profile : High@L4<br>
Format settings : CABAC / 4 Ref Frames<br>
Format settings, CABAC : Yes<br>
Format settings, Reference frames : 4 frames<br>
Codec ID : V_MPEG4/ISO/AVC<br>
Duration : 22 min 46 s<br>
Bit rate mode : Variable<br>
Bit rate : 8 494 kb/s<br>
Maximum bit rate : 12.7 Mb/s<br>
Width : 1 920 pixels<br>
Height : 1 080 pixels<br>
Display aspect ratio : 16:9<br>
Frame rate mode : Constant<br>
Frame rate : 23.976 (24000/1001) FPS<br>
Color space : YUV<br>
Chroma subsampling : 4:2:0<br>
Bit depth : 8 bits<br>
Scan type : Progressive<br>
Bits/(Pixel*Frame) : 0.171<br>
Time code of first frame : 00:00:00;00<br>
Stream size : 1.35 GiB (97%)<br>
Default : Yes<br>
Forced : No<br>
Color range : Limited<br>
Color primaries : BT.709<br>
Transfer characteristics : BT.709<br>
Matrix coefficients : BT.709<br>
<br>
Audio<br>
ID : 2<br>
Format : E-AC-3<br>
Format/Info : Enhanced AC-3<br>
Commercial name : Dolby Digital Plus<br>
Codec ID : A_EAC3<br>
Duration : 22 min 46 s<br>
Bit rate mode : Constant<br>
Bit rate : 256 kb/s<br>
Channel(s) : 6 channels<br>
Channel layout : L R C LFE Ls Rs<br>
Sampling rate : 48.0 kHz<br>
Frame rate : 31.250 FPS (1536 SPF)<br>
Compression mode : Lossy<br>
Stream size : 41.7 MiB (3%)<br>
Language : English<br>
Service kind : Complete Main<br>
Default : Yes<br>
Forced : No<br>
<br>
Text #1<br>
ID : 3<br>
Format : UTF-8<br>
Codec ID : S_TEXT/UTF8<br>
Codec ID/Info : UTF-8 Plain Text<br>
Duration : 22 min 6 s<br>
Bit rate : 49 b/s<br>
Frame rate : 0.223 FPS<br>
Count of elements : 296<br>
Stream size : 8.07 KiB (0%)<br>
Title : SDH<br>
Language : English<br>
Default : No<br>
Forced : No<br>
<br>
Text #2<br>
ID : 4<br>
Format : UTF-8<br>
Codec ID : S_TEXT/UTF8<br>
Codec ID/Info : UTF-8 Plain Text<br>
Duration : 22 min 38 s<br>
Bit rate : 45 b/s<br>
Frame rate : 0.183 FPS<br>
Count of elements : 248<br>
Stream size : 7.55 KiB (0%)<br>
Title : European<br>
Language : Spanish<br>
Default : No<br>
Forced : No<br>
<br>
Text #3<br>
ID : 5<br>
Format : UTF-8<br>
Codec ID : S_TEXT/UTF8<br>
Codec ID/Info : UTF-8 Plain Text<br>
Duration : 22 min 38 s<br>
Bit rate : 45 b/s<br>
Frame rate : 0.188 FPS<br>
Count of elements : 255<br>
Stream size : 7.58 KiB (0%)<br>
Title : European<br>
Language : Portuguese<br>
Default : No<br>
Forced : No<br>
<br>
Menu<br>
00:00:00.041 : en:Recap<br>
00:00:24.899 : en:Scene 1<br>
00:01:44.979 : en:Intro<br>
00:02:29.983 : en:Scene 2<br>
00:11:18.095 : en:Scene 3<br>
00:17:37.516 : en:Scene 4<br>
00:22:04.324 : en:Credits<br>
<br>
<b><span style="text-decoration: underline">Episode 21: Rover</span></b><br>
General<br>
Complete name : Wolverine.and.The.X-Men.S01E21.Rover.1080p.DSNP.WEB-DL.DDP5.1.H.264-Samuel.mkv<br>
Format : Matroska<br>
Format version : Version 4<br>
File size : 1.39 GiB<br>
Duration : 22 min 46 s<br>
Overall bit rate mode : Variable<br>
Overall bit rate : 8 737 kb/s<br>
Frame rate : 23.976 FPS<br>
Encoded date : 2024-01-07 10:03:02 UTC<br>
Writing application : mkvmerge v72.0.0 ('Minuano (Six-eight)') 64-bit<br>
Writing library : libebml v1.4.4 + libmatroska v1.7.1<br>
<br>
Video<br>
ID : 1<br>
Format : AVC<br>
Format/Info : Advanced Video Codec<br>
Format profile : High@L4<br>
Format settings : CABAC / 4 Ref Frames<br>
Format settings, CABAC : Yes<br>
Format settings, Reference frames : 4 frames<br>
Codec ID : V_MPEG4/ISO/AVC<br>
Duration : 22 min 46 s<br>
Bit rate mode : Variable<br>
Bit rate : 8 479 kb/s<br>
Maximum bit rate : 12.7 Mb/s<br>
Width : 1 920 pixels<br>
Height : 1 080 pixels<br>
Display aspect ratio : 16:9<br>
Frame rate mode : Constant<br>
Frame rate : 23.976 (24000/1001) FPS<br>
Color space : YUV<br>
Chroma subsampling : 4:2:0<br>
Bit depth : 8 bits<br>
Scan type : Progressive<br>
Bits/(Pixel*Frame) : 0.171<br>
Time code of first frame : 00:00:00;00<br>
Stream size : 1.35 GiB (97%)<br>
Default : Yes<br>
Forced : No<br>
Color range : Limited<br>
Color primaries : BT.709<br>
Transfer characteristics : BT.709<br>
Matrix coefficients : BT.709<br>
<br>
Audio<br>
ID : 2<br>
Format : E-AC-3<br>
Format/Info : Enhanced AC-3<br>
Commercial name : Dolby Digital Plus<br>
Codec ID : A_EAC3<br>
Duration : 22 min 46 s<br>
Bit rate mode : Constant<br>
Bit rate : 256 kb/s<br>
Channel(s) : 6 channels<br>
Channel layout : L R C LFE Ls Rs<br>
Sampling rate : 48.0 kHz<br>
Frame rate : 31.250 FPS (1536 SPF)<br>
Compression mode : Lossy<br>
Stream size : 41.7 MiB (3%)<br>
Language : English<br>
Service kind : Complete Main<br>
Default : Yes<br>
Forced : No<br>
<br>
Text #1<br>
ID : 3<br>
Format : UTF-8<br>
Codec ID : S_TEXT/UTF8<br>
Codec ID/Info : UTF-8 Plain Text<br>
Duration : 22 min 13 s<br>
Bit rate : 47 b/s<br>
Frame rate : 0.212 FPS<br>
Count of elements : 283<br>
Stream size : 7.78 KiB (0%)<br>
Title : SDH<br>
Language : English<br>
Default : No<br>
Forced : No<br>
<br>
Text #2<br>
ID : 4<br>
Format : UTF-8<br>
Codec ID : S_TEXT/UTF8<br>
Codec ID/Info : UTF-8 Plain Text<br>
Duration : 22 min 21 s<br>
Bit rate : 42 b/s<br>
Frame rate : 0.154 FPS<br>
Count of elements : 207<br>
Stream size : 6.98 KiB (0%)<br>
Title : European<br>
Language : Spanish<br>
Default : No<br>
Forced : No<br>
<br>
Text #3<br>
ID : 5<br>
Format : UTF-8<br>
Codec ID : S_TEXT/UTF8<br>
Codec ID/Info : UTF-8 Plain Text<br>
Duration : 22 min 21 s<br>
Bit rate : 44 b/s<br>
Frame rate : 0.156 FPS<br>
Count of elements : 209<br>
Stream size : 7.24 KiB (0%)<br>
Title : European<br>
Language : Portuguese<br>
Default : No<br>
Forced : No<br>
<br>
Menu<br>
00:00:00.083 : en:Recap<br>
00:00:19.811 : en:Scene 1<br>
00:01:10.028 : en:Intro<br>
00:01:55.156 : en:Scene 2<br>
00:08:31.929 : en:Scene 3<br>
00:15:45.112 : en:Scene 4<br>
00:22:11.331 : en:Credits<br>
<br>
<b><span style="text-decoration: underline">Episode 22: Aces and Eights</span></b><br>
General<br>
Complete name : Wolverine.and.The.X-Men.S01E22.Aces.and.Eights.1080p.DSNP.WEB-DL.DDP5.1.H.264-Samuel.mkv<br>
Format : Matroska<br>
Format version : Version 4<br>
File size : 1.39 GiB<br>
Duration : 22 min 47 s<br>
Overall bit rate mode : Variable<br>
Overall bit rate : 8 740 kb/s<br>
Frame rate : 23.976 FPS<br>
Encoded date : 2024-01-07 09:07:27 UTC<br>
Writing application : mkvmerge v72.0.0 ('Minuano (Six-eight)') 64-bit<br>
Writing library : libebml v1.4.4 + libmatroska v1.7.1<br>
<br>
Video<br>
ID : 1<br>
Format : AVC<br>
Format/Info : Advanced Video Codec<br>
Format profile : High@L4<br>
Format settings : CABAC / 4 Ref Frames<br>
Format settings, CABAC : Yes<br>
Format settings, Reference frames : 4 frames<br>
Codec ID : V_MPEG4/ISO/AVC<br>
Duration : 22 min 47 s<br>
Bit rate mode : Variable<br>
Bit rate : 8 482 kb/s<br>
Maximum bit rate : 12.7 Mb/s<br>
Width : 1 920 pixels<br>
Height : 1 080 pixels<br>
Display aspect ratio : 16:9<br>
Frame rate mode : Constant<br>
Frame rate : 23.976 (24000/1001) FPS<br>
Color space : YUV<br>
Chroma subsampling : 4:2:0<br>
Bit depth : 8 bits<br>
Scan type : Progressive<br>
Bits/(Pixel*Frame) : 0.171<br>
Time code of first frame : 00:00:00;00<br>
Stream size : 1.35 GiB (97%)<br>
Default : Yes<br>
Forced : No<br>
Color range : Limited<br>
Color primaries : BT.709<br>
Transfer characteristics : BT.709<br>
Matrix coefficients : BT.709<br>
<br>
Audio<br>
ID : 2<br>
Format : E-AC-3<br>
Format/Info : Enhanced AC-3<br>
Commercial name : Dolby Digital Plus<br>
Codec ID : A_EAC3<br>
Duration : 22 min 47 s<br>
Bit rate mode : Constant<br>
Bit rate : 256 kb/s<br>
Channel(s) : 6 channels<br>
Channel layout : L R C LFE Ls Rs<br>
Sampling rate : 48.0 kHz<br>
Frame rate : 31.250 FPS (1536 SPF)<br>
Compression mode : Lossy<br>
Stream size : 41.7 MiB (3%)<br>
Language : English<br>
Service kind : Complete Main<br>
Default : Yes<br>
Forced : No<br>
<br>
Text #1<br>
ID : 3<br>
Format : UTF-8<br>
Codec ID : S_TEXT/UTF8<br>
Codec ID/Info : UTF-8 Plain Text<br>
Duration : 22 min 17 s<br>
Bit rate : 59 b/s<br>
Frame rate : 0.224 FPS<br>
Count of elements : 300<br>
Stream size : 9.71 KiB (0%)<br>
Title : SDH<br>
Language : English<br>
Default : No<br>
Forced : No<br>
<br>
Text #2<br>
ID : 4<br>
Format : UTF-8<br>
Codec ID : S_TEXT/UTF8<br>
Codec ID/Info : UTF-8 Plain Text<br>
Duration : 22 min 30 s<br>
Bit rate : 55 b/s<br>
Frame rate : 0.168 FPS<br>
Count of elements : 227<br>
Stream size : 9.11 KiB (0%)<br>
Title : European<br>
Language : Spanish<br>
Default : No<br>
Forced : No<br>
<br>
Text #3<br>
ID : 5<br>
Format : UTF-8<br>
Codec ID : S_TEXT/UTF8<br>
Codec ID/Info : UTF-8 Plain Text<br>
Duration : 22 min 30 s<br>
Bit rate : 55 b/s<br>
Frame rate : 0.168 FPS<br>
Count of elements : 227<br>
Stream size : 9.18 KiB (0%)<br>
Title : European<br>
Language : Portuguese<br>
Default : No<br>
Forced : No<br>
<br>
Menu<br>
00:00:00.041 : en:Recap<br>
00:01:17.160 : en:Scene 1<br>
00:02:39.659 : en:Intro<br>
00:03:24.621 : en:Scene 2<br>
00:09:26.817 : en:Scene 3<br>
00:16:06.300 : en:Scene 4<br>
00:22:14.334 : en:Credits<br>
<br>
<b><span style="text-decoration: underline">Episode 23: Shades of Grey</span></b><br>
General<br>
Complete name : Wolverine.and.The.X-Men.S01E23.Shades.of.Grey.1080p.DSNP.WEB-DL.DDP5.1.H.264-Samuel.mkv<br>
Format : Matroska<br>
Format version : Version 4<br>
File size : 1.39 GiB<br>
Duration : 22 min 47 s<br>
Overall bit rate mode : Variable<br>
Overall bit rate : 8 747 kb/s<br>
Frame rate : 23.976 FPS<br>
Encoded date : 2024-01-07 09:10:51 UTC<br>
Writing application : mkvmerge v72.0.0 ('Minuano (Six-eight)') 64-bit<br>
Writing library : libebml v1.4.4 + libmatroska v1.7.1<br>
<br>
Video<br>
ID : 1<br>
Format : AVC<br>
Format/Info : Advanced Video Codec<br>
Format profile : High@L4<br>
Format settings : CABAC / 4 Ref Frames<br>
Format settings, CABAC : Yes<br>
Format settings, Reference frames : 4 frames<br>
Codec ID : V_MPEG4/ISO/AVC<br>
Duration : 22 min 47 s<br>
Bit rate mode : Variable<br>
Bit rate : 8 489 kb/s<br>
Maximum bit rate : 12.7 Mb/s<br>
Width : 1 920 pixels<br>
Height : 1 080 pixels<br>
Display aspect ratio : 16:9<br>
Frame rate mode : Constant<br>
Frame rate : 23.976 (24000/1001) FPS<br>
Color space : YUV<br>
Chroma subsampling : 4:2:0<br>
Bit depth : 8 bits<br>
Scan type : Progressive<br>
Bits/(Pixel*Frame) : 0.171<br>
Time code of first frame : 00:00:00;00<br>
Stream size : 1.35 GiB (97%)<br>
Default : Yes<br>
Forced : No<br>
Color range : Limited<br>
Color primaries : BT.709<br>
Transfer characteristics : BT.709<br>
Matrix coefficients : BT.709<br>
<br>
Audio<br>
ID : 2<br>
Format : E-AC-3<br>
Format/Info : Enhanced AC-3<br>
Commercial name : Dolby Digital Plus<br>
Codec ID : A_EAC3<br>
Duration : 22 min 47 s<br>
Bit rate mode : Constant<br>
Bit rate : 256 kb/s<br>
Channel(s) : 6 channels<br>
Channel layout : L R C LFE Ls Rs<br>
Sampling rate : 48.0 kHz<br>
Frame rate : 31.250 FPS (1536 SPF)<br>
Compression mode : Lossy<br>
Stream size : 41.7 MiB (3%)<br>
Language : English<br>
Service kind : Complete Main<br>
Default : Yes<br>
Forced : No<br>
<br>
Text #1<br>
ID : 3<br>
Format : UTF-8<br>
Codec ID : S_TEXT/UTF8<br>
Codec ID/Info : UTF-8 Plain Text<br>
Duration : 22 min 16 s<br>
Bit rate : 37 b/s<br>
Frame rate : 0.181 FPS<br>
Count of elements : 242<br>
Stream size : 6.18 KiB (0%)<br>
Title : SDH<br>
Language : English<br>
Default : No<br>
Forced : No<br>
<br>
Text #2<br>
ID : 4<br>
Format : UTF-8<br>
Codec ID : S_TEXT/UTF8<br>
Codec ID/Info : UTF-8 Plain Text<br>
Duration : 22 min 29 s<br>
Bit rate : 33 b/s<br>
Frame rate : 0.128 FPS<br>
Count of elements : 173<br>
Stream size : 5.59 KiB (0%)<br>
Title : European<br>
Language : Spanish<br>
Default : No<br>
Forced : No<br>
<br>
Text #3<br>
ID : 5<br>
Format : UTF-8<br>
Codec ID : S_TEXT/UTF8<br>
Codec ID/Info : UTF-8 Plain Text<br>
Duration : 22 min 29 s<br>
Bit rate : 34 b/s<br>
Frame rate : 0.127 FPS<br>
Count of elements : 172<br>
Stream size : 5.62 KiB (0%)<br>
Title : European<br>
Language : Portuguese<br>
Default : No<br>
Forced : No<br>
<br>
Menu<br>
00:00:00.041 : en:Recap<br>
00:00:59.934 : en:Scene 1<br>
00:02:10.130 : en:Intro<br>
00:02:55.300 : en:Scene 2<br>
00:07:03.048 : en:Scene 3<br>
00:13:15.963 : en:Scene 4<br>
00:22:13.333 : en:Credits<br>
<br>
<b><span style="text-decoration: underline">Episode 24: Foresight: Part 1</span></b><br>
General<br>
Complete name : Wolverine.and.The.X-Men.S01E24.Foresight.Part.1.1080p.DSNP.WEB-DL.DDP5.1.H.264-Samuel.mkv<br>
Format : Matroska<br>
Format version : Version 4<br>
File size : 1.39 GiB<br>
Duration : 22 min 46 s<br>
Overall bit rate mode : Variable<br>
Overall bit rate : 8 734 kb/s<br>
Frame rate : 23.976 FPS<br>
Encoded date : 2024-01-07 09:13:32 UTC<br>
Writing application : mkvmerge v72.0.0 ('Minuano (Six-eight)') 64-bit<br>
Writing library : libebml v1.4.4 + libmatroska v1.7.1<br>
<br>
Video<br>
ID : 1<br>
Format : AVC<br>
Format/Info : Advanced Video Codec<br>
Format profile : High@L4<br>
Format settings : CABAC / 4 Ref Frames<br>
Format settings, CABAC : Yes<br>
Format settings, Reference frames : 4 frames<br>
Codec ID : V_MPEG4/ISO/AVC<br>
Duration : 22 min 46 s<br>
Bit rate mode : Variable<br>
Bit rate : 8 476 kb/s<br>
Maximum bit rate : 12.7 Mb/s<br>
Width : 1 920 pixels<br>
Height : 1 080 pixels<br>
Display aspect ratio : 16:9<br>
Frame rate mode : Constant<br>
Frame rate : 23.976 (24000/1001) FPS<br>
Color space : YUV<br>
Chroma subsampling : 4:2:0<br>
Bit depth : 8 bits<br>
Scan type : Progressive<br>
Bits/(Pixel*Frame) : 0.170<br>
Time code of first frame : 00:00:00;00<br>
Stream size : 1.35 GiB (97%)<br>
Default : Yes<br>
Forced : No<br>
Color range : Limited<br>
Color primaries : BT.709<br>
Transfer characteristics : BT.709<br>
Matrix coefficients : BT.709<br>
<br>
Audio<br>
ID : 2<br>
Format : E-AC-3<br>
Format/Info : Enhanced AC-3<br>
Commercial name : Dolby Digital Plus<br>
Codec ID : A_EAC3<br>
Duration : 22 min 46 s<br>
Bit rate mode : Constant<br>
Bit rate : 256 kb/s<br>
Channel(s) : 6 channels<br>
Channel layout : L R C LFE Ls Rs<br>
Sampling rate : 48.0 kHz<br>
Frame rate : 31.250 FPS (1536 SPF)<br>
Compression mode : Lossy<br>
Stream size : 41.7 MiB (3%)<br>
Language : English<br>
Service kind : Complete Main<br>
Default : Yes<br>
Forced : No<br>
<br>
Text #1<br>
ID : 3<br>
Format : UTF-8<br>
Codec ID : S_TEXT/UTF8<br>
Codec ID/Info : UTF-8 Plain Text<br>
Duration : 22 min 17 s<br>
Bit rate : 49 b/s<br>
Frame rate : 0.194 FPS<br>
Count of elements : 260<br>
Stream size : 8.14 KiB (0%)<br>
Title : SDH<br>
Language : English<br>
Default : No<br>
Forced : No<br>
<br>
Text #2<br>
ID : 4<br>
Format : UTF-8<br>
Codec ID : S_TEXT/UTF8<br>
Codec ID/Info : UTF-8 Plain Text<br>
Duration : 22 min 23 s<br>
Bit rate : 46 b/s<br>
Frame rate : 0.152 FPS<br>
Count of elements : 204<br>
Stream size : 7.70 KiB (0%)<br>
Title : European<br>
Language : Spanish<br>
Default : No<br>
Forced : No<br>
<br>
Text #3<br>
ID : 5<br>
Format : UTF-8<br>
Codec ID : S_TEXT/UTF8<br>
Codec ID/Info : UTF-8 Plain Text<br>
Duration : 22 min 23 s<br>
Bit rate : 47 b/s<br>
Frame rate : 0.153 FPS<br>
Count of elements : 206<br>
Stream size : 7.71 KiB (0%)<br>
Title : European<br>
Language : Portuguese<br>
Default : No<br>
Forced : No<br>
<br>
Menu<br>
00:00:00.041 : en:Recap<br>
00:01:26.961 : en:Scene 1<br>
00:03:19.490 : en:Intro<br>
00:04:04.494 : en:Scene 2<br>
00:07:57.853 : en:Scene 3<br>
00:09:48.297 : en:Scene 4<br>
00:15:40.357 : en:Scene 5<br>
00:22:15.335 : en:Credits<br>
<br>
<b><span style="text-decoration: underline">Episode 25: Foresight: Part 2</span></b><br>
General<br>
Complete name : Wolverine.and.The.X-Men.S01E25.Foresight.Part.2.1080p.DSNP.WEB-DL.DDP5.1.H.264-Samuel.mkv<br>
Format : Matroska<br>
Format version : Version 4<br>
File size : 1.39 GiB<br>
Duration : 22 min 47 s<br>
Overall bit rate mode : Variable<br>
Overall bit rate : 8 738 kb/s<br>
Frame rate : 23.976 FPS<br>
Encoded date : 2024-01-07 10:09:32 UTC<br>
Writing application : mkvmerge v72.0.0 ('Minuano (Six-eight)') 64-bit<br>
Writing library : libebml v1.4.4 + libmatroska v1.7.1<br>
<br>
Video<br>
ID : 1<br>
Format : AVC<br>
Format/Info : Advanced Video Codec<br>
Format profile : High@L4<br>
Format settings : CABAC / 4 Ref Frames<br>
Format settings, CABAC : Yes<br>
Format settings, Reference frames : 4 frames<br>
Codec ID : V_MPEG4/ISO/AVC<br>
Duration : 22 min 47 s<br>
Bit rate mode : Variable<br>
Bit rate : 8 480 kb/s<br>
Maximum bit rate : 12.7 Mb/s<br>
Width : 1 920 pixels<br>
Height : 1 080 pixels<br>
Display aspect ratio : 16:9<br>
Frame rate mode : Constant<br>
Frame rate : 23.976 (24000/1001) FPS<br>
Color space : YUV<br>
Chroma subsampling : 4:2:0<br>
Bit depth : 8 bits<br>
Scan type : Progressive<br>
Bits/(Pixel*Frame) : 0.171<br>
Time code of first frame : 00:00:00;00<br>
Stream size : 1.35 GiB (97%)<br>
Default : Yes<br>
Forced : No<br>
Color range : Limited<br>
Color primaries : BT.709<br>
Transfer characteristics : BT.709<br>
Matrix coefficients : BT.709<br>
<br>
Audio<br>
ID : 2<br>
Format : E-AC-3<br>
Format/Info : Enhanced AC-3<br>
Commercial name : Dolby Digital Plus<br>
Codec ID : A_EAC3<br>
Duration : 22 min 47 s<br>
Bit rate mode : Constant<br>
Bit rate : 256 kb/s<br>
Channel(s) : 6 channels<br>
Channel layout : L R C LFE Ls Rs<br>
Sampling rate : 48.0 kHz<br>
Frame rate : 31.250 FPS (1536 SPF)<br>
Compression mode : Lossy<br>
Stream size : 41.7 MiB (3%)<br>
Language : English<br>
Service kind : Complete Main<br>
Default : Yes<br>
Forced : No<br>
<br>
Text #1<br>
ID : 3<br>
Format : UTF-8<br>
Codec ID : S_TEXT/UTF8<br>
Codec ID/Info : UTF-8 Plain Text<br>
Duration : 22 min 18 s<br>
Bit rate : 53 b/s<br>
Frame rate : 0.196 FPS<br>
Count of elements : 263<br>
Stream size : 8.72 KiB (0%)<br>
Title : SDH<br>
Language : English<br>
Default : No<br>
Forced : No<br>
<br>
Text #2<br>
ID : 4<br>
Format : UTF-8<br>
Codec ID : S_TEXT/UTF8<br>
Codec ID/Info : UTF-8 Plain Text<br>
Duration : 22 min 42 s<br>
Bit rate : 48 b/s<br>
Frame rate : 0.172 FPS<br>
Count of elements : 234<br>
Stream size : 7.98 KiB (0%)<br>
Title : European<br>
Language : Spanish<br>
Default : No<br>
Forced : No<br>
<br>
Text #3<br>
ID : 5<br>
Format : UTF-8<br>
Codec ID : S_TEXT/UTF8<br>
Codec ID/Info : UTF-8 Plain Text<br>
Duration : 22 min 17 s<br>
Bit rate : 52 b/s<br>
Frame rate : 0.155 FPS<br>
Count of elements : 208<br>
Stream size : 8.63 KiB (0%)<br>
Title : European<br>
Language : Portuguese<br>
Default : No<br>
Forced : No<br>
<br>
Menu<br>
00:00:00.041 : en:Recap<br>
00:01:22.665 : en:Scene 1<br>
00:01:49.317 : en:Intro<br>
00:02:34.279 : en:Scene 2<br>
00:08:24.505 : en:Scene 3<br>
00:13:57.713 : en:Scene 4<br>
00:22:15.335 : en:Credits<br>
<br>
<b><span style="text-decoration: underline">Episode 26: Foresight: Part 3</span></b><br>
General<br>
Complete name : Wolverine.and.The.X-Men.S01E26.Foresight.Part.3.1080p.DSNP.WEB-DL.DDP5.1.H.264-Samuel.mkv<br>
Format : Matroska<br>
Format version : Version 4<br>
File size : 1.39 GiB<br>
Duration : 22 min 46 s<br>
Overall bit rate mode : Variable<br>
Overall bit rate : 8 716 kb/s<br>
Frame rate : 23.976 FPS<br>
Encoded date : 2024-01-07 09:19:29 UTC<br>
Writing application : mkvmerge v72.0.0 ('Minuano (Six-eight)') 64-bit<br>
Writing library : libebml v1.4.4 + libmatroska v1.7.1<br>
<br>
Video<br>
ID : 1<br>
Format : AVC<br>
Format/Info : Advanced Video Codec<br>
Format profile : High@L4<br>
Format settings : CABAC / 4 Ref Frames<br>
Format settings, CABAC : Yes<br>
Format settings, Reference frames : 4 frames<br>
Codec ID : V_MPEG4/ISO/AVC<br>
Duration : 22 min 46 s<br>
Bit rate mode : Variable<br>
Bit rate : 8 459 kb/s<br>
Maximum bit rate : 12.7 Mb/s<br>
Width : 1 920 pixels<br>
Height : 1 080 pixels<br>
Display aspect ratio : 16:9<br>
Frame rate mode : Constant<br>
Frame rate : 23.976 (24000/1001) FPS<br>
Color space : YUV<br>
Chroma subsampling : 4:2:0<br>
Bit depth : 8 bits<br>
Scan type : Progressive<br>
Bits/(Pixel*Frame) : 0.170<br>
Time code of first frame : 00:00:00;00<br>
Stream size : 1.35 GiB (97%)<br>
Default : Yes<br>
Forced : No<br>
Color range : Limited<br>
Color primaries : BT.709<br>
Transfer characteristics : BT.709<br>
Matrix coefficients : BT.709<br>
<br>
Audio<br>
ID : 2<br>
Format : E-AC-3<br>
Format/Info : Enhanced AC-3<br>
Commercial name : Dolby Digital Plus<br>
Codec ID : A_EAC3<br>
Duration : 22 min 46 s<br>
Bit rate mode : Constant<br>
Bit rate : 256 kb/s<br>
Channel(s) : 6 channels<br>
Channel layout : L R C LFE Ls Rs<br>
Sampling rate : 48.0 kHz<br>
Frame rate : 31.250 FPS (1536 SPF)<br>
Compression mode : Lossy<br>
Stream size : 41.7 MiB (3%)<br>
Language : English<br>
Service kind : Complete Main<br>
Default : Yes<br>
Forced : No<br>
<br>
Text #1<br>
ID : 3<br>
Format : UTF-8<br>
Codec ID : S_TEXT/UTF8<br>
Codec ID/Info : UTF-8 Plain Text<br>
Duration : 22 min 15 s<br>
Bit rate : 38 b/s<br>
Frame rate : 0.171 FPS<br>
Count of elements : 229<br>
Stream size : 6.32 KiB (0%)<br>
Title : SDH<br>
Language : English<br>
Default : No<br>
Forced : No<br>
<br>
Text #2<br>
ID : 4<br>
Format : UTF-8<br>
Codec ID : S_TEXT/UTF8<br>
Codec ID/Info : UTF-8 Plain Text<br>
Duration : 22 min 41 s<br>
Bit rate : 35 b/s<br>
Frame rate : 0.146 FPS<br>
Count of elements : 199<br>
Stream size : 5.93 KiB (0%)<br>
Title : European<br>
Language : Spanish<br>
Default : No<br>
Forced : No<br>
<br>
Text #3<br>
ID : 5<br>
Format : UTF-8<br>
Codec ID : S_TEXT/UTF8<br>
Codec ID/Info : UTF-8 Plain Text<br>
Duration : 22 min 1 s<br>
Bit rate : 38 b/s<br>
Frame rate : 0.135 FPS<br>
Count of elements : 179<br>
Stream size : 6.22 KiB (0%)<br>
Title : European<br>
Language : Portuguese<br>
Default : No<br>
Forced : No<br>
<br>
Menu<br>
00:00:00.041 : en:Recap<br>
00:00:58.058 : en:Scene 1<br>
00:01:36.387 : en:Intro<br>
00:02:21.558 : en:Scene 2<br>
00:07:11.723 : en:Scene 3<br>
00:14:17.900 : en:Scene 4<br>
00:22:12.332 : en:Credits</div>
</div><br>
<b>Screenshots</b><br>
<img src="https://i.imgur.com/vuVmM2D.png" class="bbCodeImage LbImage" alt="[​IMG]" data-url="https://i.imgur.com/vuVmM2D.png" style=""><br>
<b><a href="https://imgur.com/a/81n65Q0" target="_blank" class="externalLink" rel="nofollow">More Episodes Screenshots</a></b><br>
<br>
<b>Download</b><br>
<div class="bbCodeBlock bbCodeVfcHH HiddenContent">
<div class="attribution type">Hidden Content:</div>
<blockquote>You must reply before you can see the hidden data contained here.</blockquote>
</div></div>
<div class="messageTextEndMarker">&nbsp;</div>
</blockquote>
</article>]]></description>
                <author><![CDATA[Samuel]]></author>
                </item>

                </channel></rss>